<svg width="25" height="26" viewBox="0 0 25 26" fill="none" xmlns="http://www.w3.org/2000/svg">
<g opacity="0.2">
<path d="M21.2604 3.95137C18.8338 1.49168 15.5009 0.144713 12.051 0.232559C5.18047 0.437532 -0.199003 6.14752 0.00565074 13.0288C0.034887 14.4636 0.327249 15.8691 0.853502 17.1868C1.29205 18.2995 1.87677 19.3244 2.60768 20.2614L1.58441 22.6918C1.1751 23.6289 1.61364 24.7123 2.5492 25.1222C2.8708 25.2686 3.25087 25.2979 3.60171 25.2394L8.33798 24.4195C10.0337 25.0051 11.8171 25.2101 13.6005 25.0344C19.7109 24.4195 24.4764 19.4122 24.798 13.263C24.9734 9.77848 23.687 6.41105 21.2604 3.95137ZM11.4955 17.626H8.25027C7.75326 17.626 7.31471 17.2161 7.31471 16.689C7.31471 16.1912 7.72402 15.752 8.25027 15.752H11.4955C11.9925 15.752 12.4311 16.162 12.4311 16.689C12.4311 17.2161 12.0217 17.626 11.4955 17.626ZM16.5534 13.8194H8.25027C7.75326 13.8194 7.31471 13.4094 7.31471 12.8824C7.31471 12.3553 7.72402 11.9453 8.25027 11.9453H16.5534C17.0504 11.9453 17.4889 12.3553 17.4889 12.8824C17.4889 13.4094 17.0504 13.8194 16.5534 13.8194ZM16.5534 9.98345H8.25027C7.75326 9.98345 7.31471 9.57351 7.31471 9.04643C7.31471 8.54864 7.72402 8.10941 8.25027 8.10941H16.5534C17.0504 8.10941 17.4889 8.51936 17.4889 9.04643C17.4889 9.54422 17.0504 9.98345 16.5534 9.98345Z" fill="#213991"/>
<path d="M19 11C19 14.866 15.866 18 12 18C8.13401 18 5 14.866 5 11C5 7.13401 8.13401 4 12 4C15.866 4 19 7.13401 19 11Z" fill="#213991"/>
<path d="M6 10.5304V17.3982C6 17.8723 6.38373 18.2567 6.85713 18.2567H9.42853V9.67194H6.85713C6.38373 9.67194 6 10.0563 6 10.5304Z" fill="white"/>
<path d="M18.1312 10.5302H15.5991C15.3777 10.5302 15.2668 10.3822 15.2296 10.3185C15.1923 10.2552 15.117 10.0863 15.2241 9.89263L16.1168 8.28255C16.3127 7.93002 16.3328 7.51545 16.1725 7.14532C16.0122 6.77476 15.6958 6.50607 15.3045 6.4084L14.675 6.25078C14.5218 6.21222 14.3594 6.26126 14.2527 6.37989L10.835 10.1827C10.4806 10.578 10.2855 11.0877 10.2855 11.6184V16.1103C10.2855 17.2937 11.2469 18.2565 12.4284 18.2565L16.6919 18.2561C17.6545 18.2561 18.5045 17.6068 18.7586 16.6775L19.6735 12.4723C19.7002 12.3553 19.7141 12.2354 19.7141 12.1155C19.7141 11.2415 19.0038 10.5302 18.1312 10.5302L18.1312 10.5302Z" fill="white"/>
</g>
</svg>
