<svg width="27" height="30" viewBox="0 0 27 30" fill="none" xmlns="http://www.w3.org/2000/svg">
<path d="M21.3646 21.3084L18.5796 20.3803L17.5798 18.3807C18.4805 17.4639 19.1059 16.2509 19.3168 14.9857L19.4415 14.2383H20.5078C21.4771 14.2383 22.2656 13.4498 22.2656 12.4805V8.78912C22.2656 3.94283 18.3229 6.10352e-05 13.4766 6.10352e-05C8.61785 6.10352e-05 4.6875 3.93153 4.6875 8.78912V12.4805C4.6875 13.2444 5.1774 13.8957 5.85938 14.1376V14.8243C5.85938 15.7935 6.64793 16.5821 7.61719 16.5821H8.13176C8.38576 17.1339 8.71453 17.6449 9.11461 18.104C9.19758 18.1994 9.28412 18.2919 9.37277 18.3818L8.37352 20.3803L5.5885 21.3085C2.35031 22.3883 0 25.7972 0 29.4141C0 29.7377 0.262324 30.0001 0.585938 30.0001H26.3672C26.6907 30.0001 26.9531 29.7377 26.9531 29.4141C26.9531 25.7972 24.6029 22.3883 21.3646 21.3084ZM21.0938 12.4805C21.0938 12.8036 20.8309 13.0665 20.5078 13.0665H19.6136C19.7625 11.9128 19.8618 10.685 19.9017 9.47584C19.9028 9.44174 19.9038 9.40858 19.9048 9.37506H21.0938V12.4805ZM6.44531 13.0665C6.12223 13.0665 5.85938 12.8036 5.85938 12.4805V9.37506H7.04871C7.05064 9.43617 7.0527 9.49758 7.05498 9.5594C7.05504 9.56151 7.05516 9.56356 7.05521 9.56567C7.05521 9.56584 7.05521 9.56602 7.05521 9.56619C7.09623 10.7423 7.1942 11.9381 7.33975 13.0664H6.44531V13.0665ZM7.61719 15.4102C7.2941 15.4102 7.03125 15.1474 7.03125 14.8243V14.2383H7.5116L7.63629 14.9859C7.66008 15.128 7.68932 15.2696 7.72312 15.4102H7.61719ZM7.03225 8.20319H5.88164C6.17842 4.27617 9.45568 1.17194 13.4766 1.17194C17.4796 1.17194 20.7712 4.27576 21.0714 8.20319H19.9209C19.8787 4.96723 17.2436 2.34381 14.001 2.34381H12.9522C9.70969 2.34381 7.07437 4.96723 7.03225 8.20319ZM12.9521 3.51569H14.001C16.6265 3.51569 18.7515 5.66321 18.75 8.2858C18.75 8.4702 18.7485 8.63074 18.7454 8.77682C18.7454 8.77869 18.7454 8.78063 18.7454 8.78256L18.0125 8.67785C16.0215 8.39356 14.1415 7.4536 12.719 6.03106C12.6091 5.92119 12.4601 5.85944 12.3047 5.85944C10.7311 5.85944 9.22477 6.57639 8.22902 7.78764C8.47441 5.40176 10.4914 3.51569 12.9521 3.51569ZM8.93789 15.4102C8.64457 14.4345 8.30894 11.5634 8.23477 9.72352L9.02338 8.672C9.74766 7.7066 10.8745 7.10678 12.0731 7.03793C13.6503 8.53887 15.6906 9.53004 17.8468 9.83789L18.7094 9.96117C18.6517 11.1849 18.5339 12.4129 18.3651 13.5423C18.365 13.5427 18.365 13.5431 18.3649 13.5435C18.3113 13.9066 18.2689 14.1403 18.1609 14.7929C17.8506 16.6542 16.4618 18.3373 14.6285 18.7956C13.8739 18.984 13.0791 18.984 12.325 18.7956C11.1802 18.5095 10.1306 17.7174 9.45316 16.5821H10.6477C10.8895 17.2641 11.5408 17.754 12.3047 17.754H13.4766C14.4478 17.754 15.2344 16.9674 15.2344 15.9962C15.2344 15.0269 14.4458 14.2383 13.4766 14.2383H12.3047C11.5238 14.2383 10.8821 14.7427 10.6467 15.4102H8.93789ZM12.2554 19.9815C12.6573 20.0661 13.0671 20.1094 13.4766 20.1094C13.7971 20.1094 14.1178 20.0826 14.4347 20.0306L13.3994 21.1255L12.2554 19.9815ZM12.5938 21.9773L10.7354 23.9427C10.2237 22.9634 9.7841 21.9441 9.42352 20.9007L10.1214 19.5049L12.5938 21.9773ZM16.7324 19.3063L17.5295 20.9006C17.1683 21.9458 16.7286 22.9654 16.2175 23.9436L14.2283 21.9544L16.7324 19.3063ZM11.7188 15.9962C11.7188 15.6727 11.9811 15.4102 12.3047 15.4102H13.4766C13.7996 15.4102 14.0625 15.6731 14.0625 15.9962C14.0625 16.3197 13.8001 16.5821 13.4766 16.5821H12.3047C11.9816 16.5821 11.7188 16.3192 11.7188 15.9962ZM1.19531 28.8282C1.42752 25.9255 3.3593 23.2872 5.9591 22.4202L8.42555 21.5982C8.87742 22.8478 9.43723 24.0622 10.0933 25.2158C10.0944 25.2178 10.0955 25.2198 10.0966 25.2217C10.0966 25.2218 10.0966 25.2218 10.0966 25.2219C10.576 26.065 11.1155 26.8889 11.7005 27.671L12.4213 28.8282H1.19531ZM13.4766 28.3059L12.6819 27.0301C12.673 27.0158 12.6635 27.0019 12.6534 26.9885C12.1789 26.3555 11.7363 25.6936 11.3332 25.0161L13.4228 22.8063L15.6247 25.0081C15.2188 25.6905 14.7747 26.3552 14.2998 26.9883C14.2711 27.0266 14.3118 26.9663 13.4766 28.3059ZM14.5318 28.8282L15.2526 27.6711C15.8401 26.8859 16.3835 26.0554 16.8677 25.2024C16.8706 25.1972 16.8734 25.192 16.8763 25.1868C16.8766 25.1862 16.877 25.1856 16.8773 25.1849C17.5251 24.0424 18.079 22.8384 18.5276 21.5982L20.994 22.4202C23.5938 23.2872 25.5256 25.9255 25.7578 28.8282H14.5318Z" fill="#56CE9D"/>
</svg>
