<svg width="16" height="17" viewBox="0 0 16 17" fill="none" xmlns="http://www.w3.org/2000/svg">
<path d="M15.9583 6.82317C15.8535 6.48457 15.5662 6.24408 15.2262 6.21206L10.6082 5.77381L8.78207 1.3068C8.64742 0.97943 8.34077 0.767517 8.00006 0.767517C7.65936 0.767517 7.35271 0.97943 7.21806 1.30757L5.39197 5.77381L0.77321 6.21206C0.433846 6.24484 0.147218 6.48457 0.0418691 6.82317C-0.0634801 7.16177 0.0338122 7.53316 0.290532 7.76727L3.78121 10.9668L2.75189 15.7055C2.67657 16.0539 2.80597 16.4141 3.08259 16.6231C3.23128 16.7354 3.40523 16.7925 3.58065 16.7925C3.7319 16.7925 3.88193 16.7499 4.01657 16.6657L8.00006 14.1775L11.9821 16.6657C12.2735 16.8489 12.6408 16.8322 12.9168 16.6231C13.1935 16.4135 13.3228 16.0532 13.2475 15.7055L12.2182 10.9668L15.7089 7.76791C15.9656 7.53316 16.0636 7.16241 15.9583 6.82317Z" fill="#56CE9D"/>
</svg>
