<svg width="90" height="40" viewBox="0 0 90 40" fill="none" xmlns="http://www.w3.org/2000/svg">
<path d="M17 1.00006H70C80.4934 1.00006 89 9.50665 89 20.0001C89 30.4935 80.4934 39.0001 70 39.0001H17V17.6001V1.00006Z" stroke="#56CE9D" stroke-width="2"/>
<rect x="13" y="5.00006" width="8" height="30" fill="white"/>
<path d="M31.9482 24.0001V14.0469H35.4346C36.6423 14.0469 37.5583 14.2794 38.1826 14.7442C38.807 15.2045 39.1191 15.8812 39.1191 16.7745C39.1191 17.2621 38.9938 17.6928 38.7432 18.0665C38.4925 18.4356 38.1439 18.7068 37.6973 18.8799C38.2077 19.0075 38.6087 19.265 38.9004 19.6524C39.1966 20.0398 39.3447 20.5137 39.3447 21.0743C39.3447 22.0313 39.0394 22.7559 38.4287 23.2481C37.818 23.7403 36.9476 23.9909 35.8174 24.0001H31.9482ZM33.999 19.6661V22.3526H35.7559C36.2389 22.3526 36.6149 22.2387 36.8838 22.0108C37.1572 21.7784 37.2939 21.4594 37.2939 21.0538C37.2939 20.1423 36.8223 19.6797 35.8789 19.6661H33.999ZM33.999 18.2169H35.5166C36.5511 18.1986 37.0684 17.7862 37.0684 16.9796C37.0684 16.5284 36.9362 16.2048 36.6719 16.0089C36.4121 15.8083 35.9997 15.7081 35.4346 15.7081H33.999V18.2169ZM40.4521 20.2335C40.4521 19.4997 40.5934 18.8458 40.876 18.2715C41.1585 17.6973 41.5641 17.253 42.0928 16.9385C42.626 16.6241 43.2435 16.4669 43.9453 16.4669C44.9434 16.4669 45.7568 16.7722 46.3857 17.3829C47.0192 17.9936 47.3724 18.823 47.4453 19.8712L47.459 20.377C47.459 21.5118 47.1423 22.4232 46.5088 23.1114C45.8753 23.795 45.0254 24.1368 43.959 24.1368C42.8926 24.1368 42.0404 23.795 41.4023 23.1114C40.7689 22.4278 40.4521 21.4981 40.4521 20.3223V20.2335ZM42.4277 20.377C42.4277 21.0788 42.5599 21.6166 42.8242 21.9903C43.0885 22.3594 43.4668 22.544 43.959 22.544C44.4375 22.544 44.8112 22.3617 45.0801 21.9971C45.349 21.628 45.4834 21.0401 45.4834 20.2335C45.4834 19.5453 45.349 19.0121 45.0801 18.6339C44.8112 18.2556 44.4329 18.0665 43.9453 18.0665C43.4622 18.0665 43.0885 18.2556 42.8242 18.6339C42.5599 19.0075 42.4277 19.5886 42.4277 20.377ZM53.1328 16.6036H55.1084V24.0001H53.1328V19.4337L50.6582 24.0001H48.6758V16.6036H50.6582V21.1631L53.1328 16.6036ZM54.2949 13.6026C54.2949 14.2087 54.0762 14.6986 53.6387 15.0723C53.2057 15.446 52.6361 15.6329 51.9297 15.6329C51.2233 15.6329 50.6514 15.4483 50.2139 15.0792C49.7809 14.71 49.5645 14.2178 49.5645 13.6026H50.9658C50.9658 13.8897 51.0501 14.113 51.2188 14.2725C51.3919 14.4275 51.6289 14.5049 51.9297 14.5049C52.2259 14.5049 52.4583 14.4275 52.627 14.2725C52.7956 14.113 52.8799 13.8897 52.8799 13.6026H54.2949ZM62.7578 18.1895H60.3857V24.0001H58.4033V18.1895H56.0723V16.6036H62.7578V18.1895ZM68.2129 16.6036H70.1885V24.0001H68.2129V19.4337L65.7383 24.0001H63.7559V16.6036H65.7383V21.1631L68.2129 16.6036Z" fill="#56CE9D"/>
<path d="M22.9632 17.5076L17.8511 12.4001C17.3169 11.8664 16.4513 11.8668 15.9176 12.4009C15.3839 12.9351 15.3843 13.8007 15.9185 14.3344L21.0302 19.4415C21.5633 19.9745 21.5633 20.8419 21.0302 21.375C21.0283 21.3769 21.0263 21.379 21.0243 21.381L15.9121 26.5569C15.3815 27.0941 15.3868 27.9597 15.9241 28.4904C16.1905 28.7535 16.5377 28.8849 16.8847 28.8849C17.2375 28.8849 17.5901 28.7492 17.8575 28.4784L22.9671 23.3052C24.563 21.7057 24.5618 19.1062 22.9632 17.5076Z" fill="#56CE9D"/>
<path d="M15.9277 19.0001H1.36719C0.61209 19.0001 0 19.6122 0 20.3672C0 21.1223 0.61209 21.7344 1.36719 21.7344H15.9277C16.6828 21.7344 17.2949 21.1223 17.2949 20.3672C17.2949 19.6122 16.6828 19.0001 15.9277 19.0001Z" fill="#56CE9D"/>
</svg>
