<svg width="250" height="41" viewBox="0 0 250 41" fill="none" xmlns="http://www.w3.org/2000/svg">
<path d="M62.8242 16.4451H63.8203C64.7513 16.4451 65.4479 16.2628 65.9102 15.8982C66.3724 15.5271 66.6035 14.99 66.6035 14.2869C66.6035 13.5772 66.4082 13.0531 66.0176 12.7146C65.6335 12.3761 65.028 12.2068 64.2012 12.2068H62.8242V16.4451ZM69.6602 14.1794C69.6602 15.7159 69.1784 16.891 68.2148 17.7048C67.2578 18.5186 65.8939 18.9255 64.123 18.9255H62.8242V24.0037H59.7969V9.72632H64.3574C66.0892 9.72632 67.4043 10.1007 68.3027 10.8494C69.2077 11.5916 69.6602 12.7016 69.6602 14.1794ZM76.6426 14.9998C76.0111 14.9998 75.5163 15.2016 75.1582 15.6052C74.8001 16.0024 74.5951 16.5688 74.543 17.3044H78.7227C78.7096 16.5688 78.5176 16.0024 78.1465 15.6052C77.7754 15.2016 77.2741 14.9998 76.6426 14.9998ZM77.0625 24.199C75.3047 24.199 73.931 23.7139 72.9414 22.7439C71.9518 21.7738 71.457 20.4001 71.457 18.6228C71.457 16.7934 71.9128 15.3806 72.8242 14.3845C73.7422 13.3819 75.0085 12.8806 76.623 12.8806C78.166 12.8806 79.3672 13.3201 80.2266 14.199C81.0859 15.0779 81.5156 16.2921 81.5156 17.8416V19.2869H74.4746C74.5072 20.1332 74.7578 20.794 75.2266 21.2693C75.6953 21.7445 76.3529 21.9822 77.1992 21.9822C77.8568 21.9822 78.4785 21.9138 79.0645 21.7771C79.6504 21.6404 80.2624 21.4223 80.9004 21.1228V23.4275C80.3796 23.6879 79.8229 23.88 79.2305 24.0037C78.638 24.1339 77.9154 24.199 77.0625 24.199ZM86.8184 13.0857V17.4021C86.8184 17.8578 86.7435 18.9711 86.5938 20.7419L91.6328 13.0857H95.2168V24.0037H92.3359V19.6482C92.3359 18.8735 92.401 17.7797 92.5312 16.3669L87.5117 24.0037H83.9375V13.0857H86.8184ZM94.3379 8.38843C94.2142 9.60588 93.7552 10.4945 92.9609 11.0544C92.1667 11.6078 91.0208 11.8845 89.5234 11.8845C87.9805 11.8845 86.8379 11.6176 86.0957 11.0837C85.36 10.5499 84.9466 9.65145 84.8555 8.38843H87.5215C87.5671 9.059 87.7331 9.53101 88.0195 9.80444C88.3125 10.0714 88.8333 10.2048 89.582 10.2048C90.2396 10.2048 90.7279 10.0583 91.0469 9.76538C91.3724 9.4659 91.571 9.00692 91.6426 8.38843H94.3379ZM107.385 13.0857V15.322H103.811V24.0037H100.832V15.322H97.248V13.0857H107.385ZM112.307 13.0857V17.4021C112.307 17.8578 112.232 18.9711 112.082 20.7419L117.121 13.0857H120.705V24.0037H117.824V19.6482C117.824 18.8735 117.889 17.7797 118.02 16.3669L113 24.0037H109.426V13.0857H112.307ZM126.818 13.0857V17.2849H130.979V13.0857H133.957V24.0037H130.979V19.5017H126.818V24.0037H123.84V13.0857H126.818ZM144.621 13.0857V15.322H140.061V24.0037H137.082V13.0857H144.621ZM151.184 17.4607C151.184 14.9542 151.659 13.0531 152.609 11.7576C153.566 10.4555 155.057 9.63192 157.082 9.28687C158.065 9.11759 159.533 8.90275 161.486 8.64233L161.828 11.24C160.982 11.3376 159.481 11.546 157.326 11.865C156.506 11.9952 155.894 12.1905 155.49 12.4509C155.087 12.7113 154.784 13.0824 154.582 13.5642C154.387 14.046 154.266 14.6873 154.221 15.488H154.367C154.712 14.9542 155.168 14.544 155.734 14.2576C156.301 13.9711 156.91 13.8279 157.561 13.8279C158.908 13.8279 159.956 14.2413 160.705 15.0681C161.454 15.8884 161.828 17.0668 161.828 18.6033C161.828 20.3741 161.353 21.7511 160.402 22.7341C159.458 23.7107 158.153 24.199 156.486 24.199C154.82 24.199 153.518 23.6033 152.58 22.4119C151.649 21.2139 151.184 19.5636 151.184 17.4607ZM156.662 21.7869C158.075 21.7869 158.781 20.8136 158.781 18.8669C158.781 16.9724 158.143 16.0251 156.867 16.0251C156.516 16.0251 156.164 16.1065 155.812 16.2693C155.467 16.432 155.148 16.6469 154.855 16.9138C154.569 17.1742 154.357 17.4379 154.221 17.7048C154.221 19.0264 154.432 20.0388 154.855 20.7419C155.279 21.4386 155.881 21.7869 156.662 21.7869ZM170.285 24.199C169.003 24.199 167.997 23.7335 167.268 22.8025H167.111C167.215 23.7139 167.268 24.2413 167.268 24.3845V28.8083H164.289V13.0857H166.711L167.131 14.5017H167.268C167.964 13.421 168.996 12.8806 170.363 12.8806C171.652 12.8806 172.661 13.3787 173.391 14.3748C174.12 15.3708 174.484 16.7543 174.484 18.5251C174.484 19.6905 174.312 20.7029 173.967 21.5623C173.628 22.4216 173.143 23.0759 172.512 23.5251C171.88 23.9744 171.138 24.199 170.285 24.199ZM169.406 15.2634C168.671 15.2634 168.133 15.4913 167.795 15.947C167.456 16.3962 167.281 17.1417 167.268 18.1833V18.5056C167.268 19.6775 167.44 20.5173 167.785 21.0251C168.137 21.533 168.69 21.7869 169.445 21.7869C170.78 21.7869 171.447 20.6866 171.447 18.4861C171.447 17.4119 171.281 16.6078 170.949 16.074C170.624 15.5336 170.109 15.2634 169.406 15.2634ZM179.318 18.5251C179.318 19.6059 179.494 20.4229 179.846 20.9763C180.204 21.5297 180.783 21.8064 181.584 21.8064C182.378 21.8064 182.948 21.533 183.293 20.9861C183.645 20.4327 183.82 19.6124 183.82 18.5251C183.82 17.4444 183.645 16.6339 183.293 16.0935C182.941 15.5531 182.365 15.283 181.564 15.283C180.77 15.283 180.197 15.5531 179.846 16.0935C179.494 16.6274 179.318 17.4379 179.318 18.5251ZM186.867 18.5251C186.867 20.3025 186.398 21.6925 185.461 22.6951C184.523 23.6977 183.218 24.199 181.545 24.199C180.497 24.199 179.572 23.9711 178.771 23.5154C177.971 23.0531 177.355 22.3923 176.926 21.533C176.496 20.6736 176.281 19.671 176.281 18.5251C176.281 16.7413 176.747 15.3546 177.678 14.365C178.609 13.3754 179.917 12.8806 181.604 12.8806C182.652 12.8806 183.576 13.1085 184.377 13.5642C185.178 14.0199 185.793 14.6742 186.223 15.5271C186.652 16.38 186.867 17.3793 186.867 18.5251ZM196.486 13.0857H199.768L195.441 18.3201L200.148 24.0037H196.77L192.307 18.4666V24.0037H189.328V13.0857H192.307V18.3884L196.486 13.0857ZM206.232 14.9998C205.601 14.9998 205.106 15.2016 204.748 15.6052C204.39 16.0024 204.185 16.5688 204.133 17.3044H208.312C208.299 16.5688 208.107 16.0024 207.736 15.6052C207.365 15.2016 206.864 14.9998 206.232 14.9998ZM206.652 24.199C204.895 24.199 203.521 23.7139 202.531 22.7439C201.542 21.7738 201.047 20.4001 201.047 18.6228C201.047 16.7934 201.503 15.3806 202.414 14.3845C203.332 13.3819 204.598 12.8806 206.213 12.8806C207.756 12.8806 208.957 13.3201 209.816 14.199C210.676 15.0779 211.105 16.2921 211.105 17.8416V19.2869H204.064C204.097 20.1332 204.348 20.794 204.816 21.2693C205.285 21.7445 205.943 21.9822 206.789 21.9822C207.447 21.9822 208.068 21.9138 208.654 21.7771C209.24 21.6404 209.852 21.4223 210.49 21.1228V23.4275C209.969 23.6879 209.413 23.88 208.82 24.0037C208.228 24.1339 207.505 24.199 206.652 24.199ZM219.523 24.199C218.241 24.199 217.235 23.7335 216.506 22.8025H216.35C216.454 23.7139 216.506 24.2413 216.506 24.3845V28.8083H213.527V13.0857H215.949L216.369 14.5017H216.506C217.202 13.421 218.234 12.8806 219.602 12.8806C220.891 12.8806 221.9 13.3787 222.629 14.3748C223.358 15.3708 223.723 16.7543 223.723 18.5251C223.723 19.6905 223.55 20.7029 223.205 21.5623C222.867 22.4216 222.382 23.0759 221.75 23.5251C221.118 23.9744 220.376 24.199 219.523 24.199ZM218.645 15.2634C217.909 15.2634 217.372 15.4913 217.033 15.947C216.695 16.3962 216.519 17.1417 216.506 18.1833V18.5056C216.506 19.6775 216.678 20.5173 217.023 21.0251C217.375 21.533 217.928 21.7869 218.684 21.7869C220.018 21.7869 220.686 20.6866 220.686 18.4861C220.686 17.4119 220.52 16.6078 220.188 16.074C219.862 15.5336 219.348 15.2634 218.645 15.2634ZM228.557 18.5251C228.557 19.6059 228.732 20.4229 229.084 20.9763C229.442 21.5297 230.021 21.8064 230.822 21.8064C231.617 21.8064 232.186 21.533 232.531 20.9861C232.883 20.4327 233.059 19.6124 233.059 18.5251C233.059 17.4444 232.883 16.6339 232.531 16.0935C232.18 15.5531 231.604 15.283 230.803 15.283C230.008 15.283 229.436 15.5531 229.084 16.0935C228.732 16.6274 228.557 17.4379 228.557 18.5251ZM236.105 18.5251C236.105 20.3025 235.637 21.6925 234.699 22.6951C233.762 23.6977 232.456 24.199 230.783 24.199C229.735 24.199 228.811 23.9711 228.01 23.5154C227.209 23.0531 226.594 22.3923 226.164 21.533C225.734 20.6736 225.52 19.671 225.52 18.5251C225.52 16.7413 225.985 15.3546 226.916 14.365C227.847 13.3754 229.156 12.8806 230.842 12.8806C231.89 12.8806 232.814 13.1085 233.615 13.5642C234.416 14.0199 235.031 14.6742 235.461 15.5271C235.891 16.38 236.105 17.3793 236.105 18.5251ZM248.645 15.947C248.645 16.533 248.459 17.0343 248.088 17.4509C247.723 17.8611 247.183 18.1248 246.467 18.2419V18.3201C247.242 18.4112 247.854 18.6781 248.303 19.1208C248.758 19.557 248.986 20.0974 248.986 20.7419C248.986 21.8031 248.57 22.6137 247.736 23.1736C246.903 23.727 245.712 24.0037 244.162 24.0037H238.566V13.0857H244.162C245.66 13.0857 246.779 13.3298 247.521 13.8181C248.27 14.2999 248.645 15.0095 248.645 15.947ZM245.9 20.5857C245.9 20.156 245.734 19.8468 245.402 19.658C245.07 19.4626 244.572 19.365 243.908 19.365H241.545V21.9431H243.967C244.598 21.9431 245.077 21.8259 245.402 21.5916C245.734 21.3507 245.9 21.0154 245.9 20.5857ZM245.627 16.1814C245.627 15.5173 245.1 15.1853 244.045 15.1853H241.545V17.3435H243.703C244.335 17.3435 244.813 17.2524 245.139 17.0701C245.464 16.8878 245.627 16.5916 245.627 16.1814Z" fill="white"/>
<g filter="url(#filter0_d)">
<rect x="4" y="2.00366" width="50" height="30" rx="15" fill="white"/>
<rect x="4.5" y="2.50366" width="49" height="29" rx="14.5" stroke="black"/>
<rect x="4.5" y="2.50366" width="49" height="29" rx="14.5" stroke="url(#paint0_linear)"/>
</g>
<path d="M41.8203 10.2351H32.2988V14.366H35.7266C38.2363 14.366 40.2236 14.9763 41.6885 16.197C43.1631 17.408 43.9004 19.0437 43.9004 21.1042C43.9004 23.1746 43.168 24.8396 41.7031 26.0994C40.248 27.3494 38.3096 27.9841 35.8877 28.0037H27.8604V6.67554H41.8203V10.2351ZM32.2988 17.9109V24.4734H35.7998C36.9229 24.4734 37.8164 24.1658 38.4805 23.5505C39.1543 22.9353 39.4912 22.1101 39.4912 21.075C39.4912 20.1082 39.1689 19.3464 38.5244 18.7898C37.8896 18.2234 37.0156 17.9304 35.9023 17.9109H32.2988Z" fill="#001A4B"/>
<path d="M25.7012 20.489V28.0037H30.0957V6.67554H21.7754C20.1738 6.67554 18.7676 6.96851 17.5566 7.55444C16.3359 8.14038 15.3984 8.97534 14.7441 10.0593C14.0898 11.1335 13.7627 12.3591 13.7627 13.7361C13.7627 15.8259 14.4805 17.4763 15.916 18.6873C17.3418 19.8884 19.3193 20.489 21.8486 20.489H25.7012ZM25.7012 16.9294H21.7754C20.6133 16.9294 19.7295 16.656 19.124 16.1091C18.5088 15.5623 18.2012 14.781 18.2012 13.7654C18.2012 12.7205 18.5088 11.8757 19.124 11.2312C19.7393 10.5867 20.5889 10.2546 21.6729 10.2351H25.7012V16.9294Z" fill="#001A4B"/>
<defs>
<filter id="filter0_d" x="0" y="2.00366" width="58" height="38" filterUnits="userSpaceOnUse" color-interpolation-filters="sRGB">
<feFlood flood-opacity="0" result="BackgroundImageFix"/>
<feColorMatrix in="SourceAlpha" type="matrix" values="0 0 0 0 0 0 0 0 0 0 0 0 0 0 0 0 0 0 127 0"/>
<feOffset dy="4"/>
<feGaussianBlur stdDeviation="2"/>
<feColorMatrix type="matrix" values="0 0 0 0 0 0 0 0 0 0 0 0 0 0 0 0 0 0 0.25 0"/>
<feBlend mode="normal" in2="BackgroundImageFix" result="effect1_dropShadow"/>
<feBlend mode="normal" in="SourceGraphic" in2="effect1_dropShadow" result="shape"/>
</filter>
<linearGradient id="paint0_linear" x1="29" y1="2.00366" x2="29" y2="32.0037" gradientUnits="userSpaceOnUse">
<stop stop-color="white"/>
<stop offset="1" stop-color="white" stop-opacity="0"/>
</linearGradient>
</defs>
</svg>
