<svg width="27" height="30" viewBox="0 0 27 30" fill="none" xmlns="http://www.w3.org/2000/svg">
<path d="M21.3472 10.4358L20.4596 10.2583C20.174 11.68 19.595 13.0265 18.7596 14.2119C17.9243 15.3973 16.8509 16.3954 15.6081 17.1426L13.5771 18.3612L11.5461 17.1426C10.3033 16.3954 9.22991 15.3973 8.39456 14.2119C7.5592 13.0265 6.98021 11.68 6.69455 10.2583L5.55469 4.55895L13.5771 0.948869L21.5995 4.55895L20.6274 9.41946L21.515 9.59696L22.5578 4.38294C22.5779 4.28249 22.5633 4.17819 22.5164 4.0871C22.4695 3.99601 22.3931 3.92352 22.2997 3.88148L13.7628 0.0398616C13.7044 0.0135864 13.6411 0 13.5771 0C13.5131 0 13.4498 0.0135864 13.3914 0.0398616L4.85451 3.88148C4.76109 3.92352 4.68469 3.99601 4.63781 4.0871C4.59093 4.17819 4.57634 4.28249 4.59643 4.38294L5.80697 10.4358C6.11748 11.9812 6.74682 13.4448 7.65482 14.7332C8.56281 16.0217 9.72951 17.1066 11.0804 17.9188L13.3442 19.2771C13.4146 19.3193 13.4951 19.3416 13.5771 19.3416C13.6591 19.3416 13.7396 19.3193 13.81 19.2771L16.0738 17.9188C17.4247 17.1066 18.5914 16.0217 19.4994 14.7332C20.4074 13.4448 21.0367 11.9812 21.3472 10.4358Z" fill="#213991"/>
<path d="M16.1068 4.07237L16.4782 3.24693L13.7628 2.02499C13.7044 1.99872 13.6411 1.98514 13.5771 1.98514C13.5131 1.98514 13.4498 1.99872 13.3914 2.02499L10.676 3.24693L11.0474 4.07235L13.5771 2.93399L16.1068 4.07237Z" fill="#213991"/>
<path d="M13.5771 16.25L12.4775 15.5903C12.1404 15.3879 11.8176 15.1626 11.5114 14.916L10.9435 15.6208C11.2821 15.8935 11.6391 16.1426 12.0118 16.3664L13.3443 17.1659C13.4146 17.2081 13.4951 17.2303 13.5771 17.2303C13.6591 17.2303 13.7396 17.2081 13.81 17.1659L15.1424 16.3664C15.5151 16.1426 15.8721 15.8935 16.2106 15.6208L15.6428 14.916C15.3366 15.1626 15.0138 15.3878 14.6767 15.5902L13.5771 16.25Z" fill="#213991"/>
<path d="M10.9278 23.6156C10.9022 23.5619 10.8664 23.5138 10.8222 23.474C10.7781 23.4342 10.7265 23.4035 10.6705 23.3837C10.6145 23.3638 10.5551 23.3552 10.4957 23.3582C10.4364 23.3613 10.3782 23.3761 10.3246 23.4016L9.82675 23.6386C9.86392 22.8272 9.70842 22.0186 9.37298 21.2789C9.03753 20.5391 8.53168 19.8894 7.89682 19.3827L7.64356 19.1797C7.30091 18.9041 7.02461 18.5551 6.8351 18.1584L5.61672 15.6002C5.4271 15.2026 5.13811 14.8607 4.77769 14.6074C4.41727 14.3542 3.99761 14.1983 3.55929 14.1547L3.64075 10.8205C3.66629 10.2971 3.4893 9.78385 3.1465 9.38741C2.80371 8.99097 2.32143 8.74173 1.79976 8.69142C1.68496 8.68019 1.5702 8.71322 1.47893 8.78376C1.38767 8.8543 1.32678 8.95703 1.30872 9.07096L0.00611081 17.2887C0.00269913 17.3099 0.000808557 17.3312 0.000453678 17.3526C-0.0143218 18.4811 0.332155 19.5847 0.989261 20.5022C0.995144 20.5104 1.00131 20.5183 1.00776 20.5261L4.19577 24.3836C4.41068 24.6427 4.51887 24.9739 4.49837 25.3099L4.3325 26.2553L4.16845 26.3333C4.0601 26.3849 3.97669 26.4775 3.93656 26.5906C3.89644 26.7037 3.90289 26.8281 3.95449 26.9365L5.2907 29.7418C5.31622 29.7955 5.35208 29.8437 5.39622 29.8835C5.44036 29.9233 5.49192 29.954 5.54795 29.9739C5.60398 29.9938 5.66337 30.0024 5.72274 29.9993C5.7821 29.9962 5.84028 29.9814 5.89392 29.9558L12.0498 27.024C12.1582 26.9724 12.2416 26.8798 12.2817 26.7667C12.3218 26.6536 12.3154 26.5292 12.2638 26.4208L10.9278 23.6156ZM4.89346 23.8072L1.71541 19.9615C1.18321 19.213 0.899756 18.3162 0.90514 17.3978L2.12334 9.71332C2.3174 9.81349 2.47846 9.9675 2.58721 10.1569C2.69595 10.3463 2.74777 10.563 2.73646 10.7811C2.73646 10.785 2.73612 10.7889 2.73601 10.7929L2.65211 14.2267C2.49857 14.2672 2.34913 14.3219 2.20571 14.39C2.09735 14.4416 2.01393 14.5341 1.97379 14.6473C1.93366 14.7604 1.9401 14.8848 1.9917 14.9932L3.99432 19.1983C4.01967 19.2523 4.05544 19.3007 4.09958 19.3408C4.14371 19.3809 4.19534 19.4119 4.2515 19.432C4.30765 19.4521 4.36722 19.4609 4.42678 19.4579C4.48635 19.4549 4.54473 19.4401 4.59857 19.4145C4.65242 19.3888 4.70066 19.3528 4.74053 19.3084C4.7804 19.2641 4.81111 19.2123 4.8309 19.156C4.85069 19.0998 4.85916 19.0402 4.85583 18.9806C4.8525 18.9211 4.83743 18.8628 4.81149 18.8091L3.03052 15.0695C3.38527 15.0101 3.74973 15.0677 4.06886 15.2336C4.38799 15.3996 4.64447 15.6648 4.79955 15.9894L6.01793 18.5476C6.26629 19.0674 6.62836 19.5247 7.07733 19.8856L7.3306 20.0887C7.92014 20.5591 8.37368 21.1781 8.64454 21.882C8.9154 22.5859 8.99379 23.3493 8.87166 24.0935L5.33523 25.7778L5.394 25.4428C5.39661 25.4281 5.39842 25.4132 5.39966 25.3983C5.4438 24.8223 5.26228 24.2518 4.89346 23.8072ZM5.91333 28.9438L4.9665 26.9558L10.3052 24.4132L11.252 26.4012L5.91333 28.9438Z" fill="#213991"/>
<path d="M25.6444 9.07093C25.6262 8.95704 25.5653 8.85436 25.4741 8.78383C25.3829 8.71331 25.2681 8.68025 25.1534 8.69139C24.6317 8.7417 24.1494 8.99094 23.8066 9.38738C23.4638 9.78382 23.2868 10.297 23.3124 10.8205L23.3938 14.1546C22.9555 14.1982 22.5359 14.3542 22.1754 14.6074C21.815 14.8606 21.526 15.2026 21.3364 15.6001L20.118 18.1583C19.9285 18.555 19.6521 18.904 19.3095 19.1795L19.0563 19.3825C18.4214 19.8891 17.9155 20.5389 17.58 21.2787C17.2445 22.0184 17.089 22.8271 17.1262 23.6386L16.6284 23.4016C16.5747 23.376 16.5166 23.3613 16.4572 23.3582C16.3978 23.3551 16.3385 23.3638 16.2825 23.3836C16.2264 23.4035 16.1749 23.4342 16.1307 23.474C16.0866 23.5138 16.0507 23.5619 16.0252 23.6155L14.6892 26.4208C14.6376 26.5291 14.6311 26.6536 14.6712 26.7667C14.7114 26.8798 14.7948 26.9723 14.9031 27.024L21.0592 29.9559C21.1128 29.9815 21.171 29.9963 21.2304 29.9994C21.2897 30.0025 21.3491 29.9938 21.4052 29.974C21.4612 29.9541 21.5128 29.9234 21.5569 29.8836C21.601 29.8437 21.6369 29.7956 21.6624 29.7419L22.9984 26.9367C23.05 26.8283 23.0564 26.7039 23.0163 26.5908C22.9762 26.4777 22.8928 26.3851 22.7844 26.3335L22.6204 26.2555L22.4545 25.3101C22.434 24.9741 22.5422 24.6429 22.7571 24.3838L25.945 20.5262C25.9515 20.5184 25.9576 20.5104 25.9635 20.5023C26.6206 19.5848 26.9671 18.4812 26.9523 17.3527C26.952 17.3313 26.9501 17.3099 26.9467 17.2888L25.6444 9.07093ZM21.0398 28.944L15.7011 26.4014L16.6479 24.4134L21.9866 26.956L21.0398 28.944ZM25.2377 19.9614L22.0597 23.8071C21.691 24.2518 21.5095 24.8223 21.5536 25.3983C21.5548 25.4132 21.5566 25.428 21.5593 25.4427L21.6181 25.7777L18.0815 24.0935C17.9593 23.3492 18.0377 22.5859 18.3086 21.882C18.5795 21.1781 19.0331 20.5591 19.6226 20.0887L19.8758 19.8856C20.3248 19.5247 20.6869 19.0674 20.9352 18.5476L22.1536 15.9894C22.3087 15.6648 22.5652 15.3996 22.8843 15.2337C23.2035 15.0677 23.5679 15.0101 23.9227 15.0694L22.1416 18.8091C22.1156 18.8628 22.1006 18.9211 22.0972 18.9807C22.0939 19.0402 22.1024 19.0999 22.1222 19.1561C22.1419 19.2124 22.1727 19.2642 22.2125 19.3085C22.2524 19.3529 22.3006 19.3889 22.3545 19.4146C22.4083 19.4402 22.4667 19.455 22.5263 19.458C22.5858 19.461 22.6454 19.4522 22.7016 19.4321C22.7577 19.412 22.8093 19.381 22.8535 19.3409C22.8976 19.3008 22.9334 19.2523 22.9587 19.1984L24.9614 14.9932C25.013 14.8849 25.0194 14.7605 24.9793 14.6473C24.9391 14.5342 24.8557 14.4417 24.7473 14.3901C24.6039 14.3219 24.4545 14.2673 24.3009 14.2268L24.217 10.793C24.217 10.789 24.217 10.7851 24.2166 10.7812C24.2053 10.5631 24.2571 10.3464 24.3658 10.157C24.4746 9.96758 24.6357 9.81357 24.8297 9.71341L26.0478 17.3979C26.0532 18.3162 25.7698 19.213 25.2377 19.9614Z" fill="#213991"/>
<path d="M18.6813 9.39896L19.7883 7.73561C19.8036 7.71269 19.8167 7.68843 19.8276 7.66313C19.8876 7.51421 19.9129 7.35359 19.9017 7.19342C19.8904 7.03326 19.8428 6.87777 19.7626 6.73872C19.6823 6.59968 19.5714 6.48073 19.4383 6.39089C19.3053 6.30105 19.1535 6.24268 18.9945 6.2202C18.9621 6.21628 18.9293 6.21594 18.8968 6.21917L17.2621 6.37942C16.9815 6.35483 16.7002 6.41696 16.456 6.55739L15.3134 7.21787L11.4124 6.35094C11.3526 6.33768 11.2909 6.33666 11.2307 6.34794C11.1706 6.35922 11.1134 6.38256 11.0625 6.41656L9.74873 7.29546C9.68505 7.33806 9.63323 7.39612 9.59812 7.46421C9.56301 7.53231 9.54576 7.6082 9.54799 7.68478C9.55022 7.76136 9.57185 7.83611 9.61086 7.90205C9.64987 7.96799 9.70498 8.02294 9.77102 8.06177L12.3286 9.56527L10.7568 10.8227L9.16674 10.4035C9.06705 10.3772 8.96138 10.3858 8.8672 10.4277L7.96206 10.8309C7.89559 10.8606 7.83724 10.9058 7.79196 10.9627C7.74668 11.0197 7.7158 11.0867 7.70195 11.1582C7.68809 11.2296 7.69166 11.3033 7.71236 11.3731C7.73306 11.4429 7.77028 11.5066 7.82086 11.5589L10.0837 13.8992C10.1532 13.9711 10.2446 14.018 10.3436 14.0325C10.4426 14.0469 10.5435 14.0282 10.6307 13.9792L18.5263 9.54279C18.5886 9.50777 18.6417 9.45848 18.6813 9.39896ZM10.4917 13.0191L8.92102 11.3946L9.08998 11.3193L10.7462 11.7561C10.8146 11.7741 10.8862 11.7759 10.9553 11.7613C11.0244 11.7467 11.0892 11.716 11.1443 11.6719L13.4072 9.8616C13.4645 9.81577 13.5097 9.75672 13.5391 9.68951C13.5685 9.6223 13.5811 9.54896 13.5759 9.4758C13.5706 9.40264 13.5477 9.33185 13.509 9.26953C13.4703 9.2072 13.417 9.15522 13.3538 9.11805L10.8513 7.64692L11.405 7.27656L15.2891 8.13971C15.3998 8.1643 15.5156 8.14647 15.6138 8.08974L16.9088 7.34119C16.9996 7.28989 17.1048 7.26966 17.2082 7.2836C17.2407 7.28746 17.2735 7.2878 17.306 7.28462L18.9139 7.12698C18.9412 7.14179 18.9637 7.1641 18.9787 7.19128C18.9957 7.21915 19.0037 7.25158 19.0016 7.28415L17.9881 8.80696L10.4917 13.0191Z" fill="#213991"/>
</svg>
