<svg width="25" height="20" viewBox="0 0 25 20" fill="none" xmlns="http://www.w3.org/2000/svg">
<path d="M2.80001 4.00001C3.46161 4.00001 4.00001 3.46161 4.00001 2.80001C4.00001 2.13841 3.46161 1.60001 2.80001 1.60001C2.13841 1.60001 1.60001 2.13841 1.60001 2.80001C1.60001 3.46161 2.13841 4.00001 2.80001 4.00001ZM2.80001 2.40001C3.02081 2.40001 3.20001 2.57961 3.20001 2.80001C3.20001 3.02041 3.02081 3.20001 2.80001 3.20001C2.57921 3.20001 2.40001 3.02041 2.40001 2.80001C2.40001 2.57961 2.57921 2.40001 2.80001 2.40001Z" fill="#213991"/>
<path d="M5.99999 4.00001C6.66159 4.00001 7.19999 3.46161 7.19999 2.80001C7.19999 2.13841 6.66159 1.60001 5.99999 1.60001C5.33839 1.60001 4.79999 2.13841 4.79999 2.80001C4.79999 3.46161 5.33839 4.00001 5.99999 4.00001ZM5.99999 2.40001C6.22079 2.40001 6.39999 2.57961 6.39999 2.80001C6.39999 3.02041 6.22079 3.20001 5.99999 3.20001C5.77919 3.20001 5.59999 3.02041 5.59999 2.80001C5.59999 2.57961 5.77919 2.40001 5.99999 2.40001Z" fill="#213991"/>
<path d="M9.2 4.00001C9.8616 4.00001 10.4 3.46161 10.4 2.80001C10.4 2.13841 9.8616 1.60001 9.2 1.60001C8.5384 1.60001 8 2.13841 8 2.80001C8 3.46161 8.5384 4.00001 9.2 4.00001ZM9.2 2.40001C9.4208 2.40001 9.6 2.57961 9.6 2.80001C9.6 3.02041 9.4208 3.20001 9.2 3.20001C8.9792 3.20001 8.8 3.02041 8.8 2.80001C8.8 2.57961 8.9792 2.40001 9.2 2.40001Z" fill="#213991"/>
<path d="M23.6 0H1.2C0.5384 0 0 0.5384 0 1.2V18.8C0 19.4616 0.5384 20 1.2 20H23.6C24.2616 20 24.8 19.4616 24.8 18.8V1.2C24.8 0.5384 24.2616 0 23.6 0ZM1.2 0.8H23.6C23.8208 0.8 24 0.9796 24 1.2V4.8H0.8V1.2C0.8 0.9796 0.9792 0.8 1.2 0.8ZM0.8 18.8V5.6H4V6.4H2.4V7.2H4V8H1.6V8.8H4V9.6H2.4V10.4H4V11.2H1.6V12H4V12.8H2.4V13.6H4V14.4H1.6V15.2H4V16H2.4V16.8H4V17.6H1.6V18.4H4V19.2H1.2C0.9792 19.2 0.8 19.0204 0.8 18.8ZM10.4 19.2H7.2V15.2H10.4V19.2ZM16 19.2H12.8V12H16V19.2ZM21.6 19.2H18.4V8H21.6V19.2ZM23.6 19.2H22.4V7.2H17.6V19.2H16.8V11.2H12V19.2H11.2V14.4H6.4V19.2H4.8V5.6H24V18.8C24 19.0204 23.8208 19.2 23.6 19.2Z" fill="#213991"/>
<path d="M5.60001 7.19998V7.99998H12.194L14.0748 10.6324L14.7252 10.1676L12.606 7.19998H5.60001Z" fill="#213991"/>
</svg>
