<svg width="25" height="30" viewBox="0 0 25 30" fill="none" xmlns="http://www.w3.org/2000/svg">
<path d="M18.6398 14.5267L12.7639 8.61806C12.6659 8.52013 12.5354 8.48749 12.4048 8.48749C12.2742 8.48749 12.1436 8.55278 12.0457 8.65071L6.16974 14.5593C6.03917 14.6899 5.97388 14.9184 6.07181 15.1143C6.1371 15.3101 6.33296 15.4407 6.52883 15.4407H7.63873V19.9782C7.63873 20.272 7.86724 20.5005 8.16104 20.5005H16.6485C16.9423 20.5005 17.1708 20.272 17.1708 19.9782V15.4081H18.2807C18.4766 15.4081 18.6725 15.2775 18.7378 15.0816C18.803 14.8857 18.7704 14.6572 18.6398 14.5267ZM16.6485 14.3961C16.3547 14.3961 16.1262 14.6246 16.1262 14.9184V19.4559H8.68335V14.8857C8.68335 14.5919 8.45484 14.3634 8.16104 14.3634H7.76931L12.4048 9.72797L17.0403 14.3961H16.6485Z" fill="#213991"/>
<path d="M15.4407 13.025C15.2448 12.8291 14.9184 12.8291 14.7225 13.025L11.3602 16.2568L10.1523 14.2002C10.0218 13.9717 9.69532 13.8738 9.46681 14.0043C9.23831 14.1349 9.14037 14.4614 9.27095 14.6899L10.8052 17.3014C10.8705 17.432 11.0337 17.5299 11.1643 17.5626C11.197 17.5626 11.197 17.5626 11.2296 17.5626C11.3602 17.5626 11.4908 17.4973 11.5887 17.432L15.4407 13.7432C15.6366 13.5473 15.6366 13.2209 15.4407 13.025Z" fill="#213991"/>
<path d="M24.7769 5.97388C24.7769 5.97388 24.7769 5.94124 24.7443 5.94124C24.7116 5.87595 24.679 5.84331 24.6464 5.81066L19.0316 0.163221C18.9989 0.130577 18.9336 0.0979325 18.8683 0.0652884C18.8683 0.0652884 18.8357 0.0652884 18.8357 0.0326442C18.803 0.0326442 18.7378 0 18.7051 0H18.6725H0.522307C0.228509 0 0 0.228509 0 0.522307V29.4777C0 29.7715 0.228509 30 0.522307 30H24.2873C24.5811 30 24.8096 29.7715 24.8096 29.4777V6.1371V6.10446C24.8096 6.07182 24.8096 6.00653 24.7769 5.97388ZM19.1621 1.76279L23.0468 5.64744H19.1621V1.76279ZM23.7976 28.9554H1.01197V1.01197H18.1502V6.1371C18.1502 6.4309 18.3787 6.65941 18.6725 6.65941H23.7976V28.9554Z" fill="#213991"/>
<path d="M12.4048 5.61481H4.7334C4.4396 5.61481 4.21109 5.84332 4.21109 6.13711C4.21109 6.43091 4.4396 6.65942 4.7334 6.65942H12.4048C12.6986 6.65942 12.9271 6.43091 12.9271 6.13711C12.9271 5.84332 12.6986 5.61481 12.4048 5.61481Z" fill="#213991"/>
<path d="M20.729 22.8835H4.7334C4.4396 22.8835 4.21109 23.1121 4.21109 23.4059C4.21109 23.6996 4.4396 23.9282 4.7334 23.9282H20.729C21.0228 23.9282 21.2514 23.6996 21.2514 23.4059C21.2514 23.1121 21.0228 22.8835 20.729 22.8835Z" fill="#213991"/>
<path d="M20.729 25.4625H4.7334C4.4396 25.4625 4.21109 25.691 4.21109 25.9848C4.21109 26.2786 4.4396 26.5071 4.7334 26.5071H20.729C21.0228 26.5071 21.2514 26.2786 21.2514 25.9848C21.2514 25.691 21.0228 25.4625 20.729 25.4625Z" fill="#213991"/>
</svg>
