<svg width="30" height="30" viewBox="0 0 30 30" fill="none" xmlns="http://www.w3.org/2000/svg">
<path d="M6.74716 29.8268C6.97421 30.0557 7.34386 30.0582 7.57388 29.8316L10.4139 27.0337C10.8963 26.5513 11.0431 25.8369 10.8309 25.216L11.4418 24.6268C11.7707 24.3091 12.2037 24.134 12.6615 24.134H20.4487C21.8303 24.134 23.136 23.6035 24.126 22.6401C24.1667 22.6005 23.8167 23.0127 29.4385 16.2937C30.2724 15.3072 30.1476 13.8259 29.1602 12.9911C28.179 12.1642 26.7091 12.283 25.873 13.2525L22.4164 16.8052C21.98 16.268 21.3144 15.9332 20.5952 15.9332H14.0632C13.1337 15.5443 12.1474 15.3475 11.1298 15.3475C8.30997 15.3475 5.84651 16.6494 4.52426 19.0929C3.96739 18.9874 3.38008 19.1558 2.95756 19.5784L0.170918 22.3732C-0.0565907 22.6014 -0.0570485 22.9706 0.170003 23.1993L6.74716 29.8268ZM11.1296 16.5189C12.0268 16.5189 12.8942 16.6995 13.7084 17.0556C13.7825 17.0881 13.8624 17.1048 13.9432 17.1048H20.5952C21.2304 17.1048 21.7669 17.6228 21.7669 18.2763C21.7669 18.9224 21.2414 19.4479 20.5952 19.4479H15.8159C15.4925 19.4479 15.2302 19.7102 15.2302 20.0336C15.2302 20.3573 15.4925 20.6193 15.8159 20.6193H20.5952C21.8873 20.6193 22.9383 19.5683 22.9383 18.2763C22.9383 18.1733 22.931 18.0712 22.9177 17.97C26.2614 14.5329 26.7329 14.0499 26.7531 14.0259C27.1705 13.5331 27.9117 13.4706 28.4047 13.8863C28.8982 14.3035 28.9606 15.0442 28.542 15.5397L23.288 21.8207C22.5208 22.5573 21.5135 22.9626 20.4487 22.9626H12.6615C11.8984 22.9626 11.176 23.2544 10.6281 23.7838L10.1303 24.2643L5.54118 19.6754C6.61372 17.6633 8.62628 16.5189 11.1296 16.5189ZM3.78657 20.4062C3.97975 20.2131 4.27638 20.1783 4.5119 20.3238C4.60139 20.3783 9.61162 25.4009 9.64252 25.4423C9.81395 25.6733 9.78946 26.0013 9.58873 26.2022L7.16762 28.5874L1.41192 22.7878L3.78657 20.4062Z" fill="#213991"/>
<path d="M9.13806 12.4185H23.1967C24.1658 12.4185 24.9541 11.6302 24.9541 10.6611C24.9541 9.18458 24.9541 2.81914 24.9541 1.75736C24.9541 0.78827 24.1658 0 23.1967 0H9.13806C8.16898 0 7.38071 0.78827 7.38071 1.75736V10.6611C7.38071 11.6302 8.16898 12.4185 9.13806 12.4185ZM23.7824 4.68613H8.55235V3.51471H23.7824V4.68613ZM23.1967 11.247H9.13806C8.81511 11.247 8.55235 10.9841 8.55235 10.6611V5.85778H23.7824V10.6611C23.7824 10.9841 23.5196 11.247 23.1967 11.247ZM9.13806 1.17165H23.1967C23.5196 1.17165 23.7824 1.4344 23.7824 1.75736V2.34307H8.55235V1.75736C8.55235 1.4344 8.81511 1.17165 9.13806 1.17165Z" fill="#213991"/>
</svg>
