<svg width="30" height="30" viewBox="0 0 30 30" fill="none" xmlns="http://www.w3.org/2000/svg">
<path d="M27.3386 9.10901L30 6.44759L23.5524 0L20.4276 3.12478L17.6023 3.75252C16.6203 3.97122 15.7244 4.46342 15.013 5.1748L13.3177 6.87009C12.7962 7.39161 12.4972 8.11356 12.4972 8.8509C12.4972 9.18015 12.5597 9.50556 12.6726 9.81222H11.5359V14.3929L9.85116 13.2225C8.86051 12.5342 7.48198 12.5342 6.49181 13.2225L0.613324 17.3062C0.229275 17.573 0 18.0113 0 18.4785C0 19.2659 0.640241 19.9061 1.42756 19.9061H1.92265V29.0387H0.961323V30H15.3812V29.0387H14.4198V28.0774H23.7514L27.8784 23.9504V9.81222H27.1107L27.3386 9.10901ZM13.9973 7.54975L15.6926 5.85446C16.2747 5.27237 17.0072 4.87006 17.8109 4.69125L20.9093 4.00247L23.5524 1.35931L28.6407 6.44759L26.4955 8.59278L26.1004 9.81222H17.5028L16.5415 8.8509H17.7162C19.1284 8.8509 20.456 8.30054 21.4548 7.30221L22.2099 6.54709L21.5303 5.86743L20.7751 6.62255C19.958 7.4392 18.8717 7.88958 17.7162 7.88958H16.1435L15.1822 8.8509L18.4886 12.1574C18.6521 12.3213 18.7458 12.5472 18.7458 12.7789C18.7458 13.2634 18.3517 13.6575 17.8667 13.6575C17.6321 13.6575 17.411 13.5662 17.2452 13.4004L13.9973 10.152C13.6551 9.80934 13.4585 9.33541 13.4585 8.8509C13.4585 8.36639 13.6551 7.89246 13.9973 7.54975ZM12.4972 10.7735H13.2653C13.2831 10.7928 13.2994 10.8134 13.3177 10.8317L16.566 14.08C16.9135 14.4275 17.3754 14.6188 17.8667 14.6188C18.8818 14.6188 19.7071 13.7931 19.7071 12.7789C19.7071 12.2871 19.5158 11.8252 19.1678 11.4777L18.4641 10.7735H26.917V23.2707H25.9557V21.3481H17.3038V26.1547H23.0717V27.116H12.4972V10.7735ZM24.9944 23.2707H23.0717V25.1934H18.2651V22.3094H24.9944V23.2707ZM24.0331 24.2321H26.2374L24.0331 26.4364V24.2321ZM1.42756 18.9448C1.17041 18.9448 0.961323 18.7357 0.961323 18.4785C0.961323 18.3262 1.03631 18.1829 1.16176 18.0955L7.04025 14.0118C7.70741 13.5479 8.63508 13.5479 9.30272 14.0118L11.5359 15.5633V17.0832L9.32291 15.4739C8.64902 14.9837 7.69347 14.9837 7.0191 15.4739L2.36966 18.8554C2.28939 18.914 2.19422 18.9448 2.0952 18.9448H1.92265H1.42756ZM9.61323 29.0387H6.72926V24.2321H9.61323V29.0387ZM13.4585 29.0387H10.5746V23.2707H5.76794V29.0387H2.88397V19.6643C2.90079 19.6533 2.91858 19.6446 2.93492 19.6331L7.58436 16.2516C7.92803 16.0027 8.41446 16.0027 8.75765 16.2516L11.5359 18.2719V28.0774H13.4585V29.0387Z" fill="#213991"/>
<path d="M8.17124 17.5028C7.1109 17.5028 6.2486 18.3651 6.2486 19.4255C6.2486 20.4858 7.1109 21.3481 8.17124 21.3481C9.23158 21.3481 10.0939 20.4858 10.0939 19.4255C10.0939 18.3651 9.23158 17.5028 8.17124 17.5028ZM8.17124 20.3868C7.64107 20.3868 7.20992 19.9556 7.20992 19.4255C7.20992 18.8953 7.64107 18.4641 8.17124 18.4641C8.70141 18.4641 9.13256 18.8953 9.13256 19.4255C9.13256 19.9556 8.70141 20.3868 8.17124 20.3868Z" fill="#213991"/>
<path d="M21.1491 11.7349H25.9557V12.6962H21.1491V11.7349Z" fill="#213991"/>
<path d="M21.1491 13.6575H25.9557V14.6189H21.1491V13.6575Z" fill="#213991"/>
<path d="M17.3038 15.5802H25.9557V16.5415H17.3038V15.5802Z" fill="#213991"/>
<path d="M17.3038 17.5028H25.9557V18.4641H17.3038V17.5028Z" fill="#213991"/>
<path d="M17.3038 19.4254H22.1104V20.3868H17.3038V19.4254Z" fill="#213991"/>
<path d="M14.9005 21.3481C15.1653 21.3481 15.3811 21.5634 15.3811 21.8288H16.3425C16.3425 21.2029 15.9392 20.6742 15.3811 20.4752V19.4254H14.4198V20.3868H13.4585V21.8288C13.4585 22.6238 14.1055 23.2707 14.9005 23.2707C15.1653 23.2707 15.3811 23.4861 15.3811 23.7514V24.2321H14.9005C14.6356 24.2321 14.4198 24.0167 14.4198 23.7514H13.4585C13.4585 24.3772 13.8618 24.9059 14.4198 25.1049V26.1547H15.3811V25.1934H16.3425V23.7514C16.3425 22.9564 15.6955 22.3094 14.9005 22.3094C14.6356 22.3094 14.4198 22.0941 14.4198 21.8288V21.3481H14.9005Z" fill="#213991"/>
</svg>
