<svg width="24" height="30" viewBox="0 0 24 30" fill="none" xmlns="http://www.w3.org/2000/svg">
<path d="M21.2499 8.74996C20.7361 8.74996 20.2574 8.90623 19.8599 9.17249C19.5174 8.2 18.5886 7.49998 17.4999 7.49998C16.9861 7.49998 16.5074 7.65625 16.1099 7.9225C15.7674 6.95002 14.8386 6.25 13.7499 6.25C13.2949 6.25 12.8674 6.37252 12.4999 6.58627V2.5C12.4999 1.12123 11.3787 -1.52588e-05 9.9999 -1.52588e-05C8.62113 -1.52588e-05 7.49988 1.12123 7.49988 2.5V17.1138L4.06365 15.395C3.54615 15.1362 2.96613 15 2.3874 15C1.06992 15 -0.00012207 16.0713 -0.00012207 17.395C-0.00012207 18.0337 0.248608 18.6325 0.699897 19.0837L8.78238 27.1662C10.6086 28.9938 13.0399 30 15.6249 30C20.1049 30 23.7499 26.355 23.7499 21.875V11.25C23.7499 9.87121 22.6287 8.74996 21.2499 8.74996ZM22.4999 21.875C22.4999 25.6662 19.4149 28.7499 15.6236 28.7499C13.3724 28.7499 11.2574 27.8737 9.66738 26.2812L1.58367 18.1987C1.36869 17.985 1.24992 17.6988 1.24992 17.3875C1.24992 16.76 1.75992 16.25 2.3874 16.25C2.77365 16.25 3.15867 16.3413 3.5049 16.5138L7.84617 18.6838C8.03994 18.78 8.27115 18.77 8.45367 18.6563C8.63742 18.5426 8.74992 18.3413 8.74992 18.125V2.5C8.74992 1.81123 9.3099 1.25002 9.9999 1.25002C10.6899 1.25002 11.2499 1.81129 11.2499 2.5V14.375C11.2499 14.72 11.5299 15 11.8749 15C12.2199 15 12.4999 14.72 12.4999 14.375V8.75002C12.4999 8.06125 13.0599 7.50004 13.7499 7.50004C14.4399 7.50004 14.9999 8.06131 14.9999 8.75002V14.375C14.9999 14.72 15.2799 15 15.6249 15C15.9699 15 16.2499 14.72 16.2499 14.375V10C16.2499 9.31124 16.8099 8.75002 17.4999 8.75002C18.1899 8.75002 18.7499 9.31129 18.7499 10V14.375C18.7499 14.72 19.0299 15 19.3749 15C19.7199 15 19.9999 14.72 19.9999 14.375V11.25C19.9999 10.5612 20.5599 10 21.2499 10C21.9399 10 22.4999 10.5613 22.4999 11.25V21.875Z" fill="#213991"/>
</svg>
