<svg width="28" height="30" viewBox="0 0 28 30" fill="none" xmlns="http://www.w3.org/2000/svg">
<path d="M18.9835 6.70295L13.9142 4.16833C13.7716 4.09705 13.6037 4.09705 13.4611 4.16833L8.39181 6.70295C8.21996 6.78881 8.11142 6.96453 8.11148 7.15665V13.7467C8.11148 14.0266 8.33846 14.2536 8.6184 14.2536H18.7569C19.0368 14.2536 19.2638 14.0266 19.2638 13.7467V7.15665C19.2639 6.96453 19.1553 6.78888 18.9835 6.70295ZM14.7015 13.2397H12.6738V10.7051H14.7015V13.2397ZM18.25 13.2397H15.7153V10.1982C15.7153 9.91825 15.4884 9.69127 15.2084 9.69127H12.1669C11.8869 9.69127 11.66 9.91825 11.66 10.1982V13.2397H9.12533V7.46993L13.6876 5.18877L18.25 7.46993V13.2397Z" fill="#213991"/>
<path d="M13.6877 -0.00012207L4.83675 4.42533L6.41684 6.79621L13.6877 3.16106L20.9585 6.79621L22.5386 4.42533L13.6877 -0.00012207ZM20.6107 5.48936L13.6877 2.02757L6.76459 5.48936L6.31697 4.8187L13.6877 1.13336L21.0583 4.8187L20.6107 5.48936Z" fill="#213991"/>
<path d="M11.0791 23.5271C11.0532 23.4727 11.0168 23.4239 10.9721 23.3835C10.9273 23.3432 10.8751 23.3121 10.8183 23.2919C10.7615 23.2718 10.7013 23.263 10.6411 23.2662C10.5809 23.2693 10.522 23.2842 10.4676 23.3101L9.96284 23.5504C10.0005 22.7278 9.84287 21.9079 9.50278 21.158C9.16269 20.408 8.64983 19.7493 8.00619 19.2356L7.74941 19.0297C7.40202 18.7504 7.12189 18.3965 6.92976 17.9943L5.69451 15.4007C5.50226 14.9976 5.20927 14.6509 4.84386 14.3942C4.47844 14.1374 4.05297 13.9793 3.60858 13.9351L3.69117 10.5548C3.71706 10.0241 3.53762 9.50378 3.19008 9.10185C2.84253 8.69992 2.35358 8.44723 1.82468 8.39622C1.70829 8.38484 1.59194 8.41833 1.49942 8.48985C1.40689 8.56136 1.34516 8.66551 1.32684 8.78102L0.00619544 17.1126C0.00273651 17.134 0.000819754 17.1557 0.000459961 17.1774C-0.0145201 18.3215 0.336755 19.4403 1.00296 20.3705C1.00893 20.3788 1.01518 20.3869 1.02172 20.3948L4.25388 24.3058C4.47176 24.5684 4.58145 24.9042 4.56067 25.2449L4.3925 26.2033L4.22617 26.2824C4.11632 26.3348 4.03176 26.4286 3.99108 26.5433C3.9504 26.6579 3.95694 26.7841 4.00926 26.8939L5.36398 29.7382C5.38985 29.7926 5.4262 29.8414 5.47095 29.8818C5.5157 29.9221 5.56798 29.9533 5.62478 29.9734C5.68158 29.9936 5.7418 30.0023 5.80199 29.9992C5.86218 29.996 5.92116 29.981 5.97555 29.9551L12.2167 26.9827C12.3266 26.9303 12.4111 26.8365 12.4518 26.7218C12.4925 26.6072 12.4859 26.481 12.4336 26.3712L11.0791 23.5271ZM4.96123 23.7213L1.73916 19.8223C1.19959 19.0635 0.912217 18.1543 0.917675 17.2232L2.15275 9.43228C2.3495 9.53383 2.51278 9.68997 2.62304 9.88199C2.73329 10.074 2.78583 10.2937 2.77436 10.5148C2.77436 10.5188 2.77401 10.5228 2.7739 10.5268L2.68884 14.0082C2.53317 14.0492 2.38166 14.1046 2.23626 14.1737C2.1264 14.226 2.04182 14.3199 2.00113 14.4345C1.96044 14.5492 1.96697 14.6754 2.01928 14.7852L4.04964 19.0486C4.07534 19.1033 4.11161 19.1524 4.15635 19.1931C4.2011 19.2338 4.25344 19.2652 4.31037 19.2855C4.3673 19.3059 4.4277 19.3148 4.48809 19.3118C4.54848 19.3087 4.60767 19.2938 4.66226 19.2678C4.71685 19.2418 4.76576 19.2052 4.80618 19.1603C4.8466 19.1153 4.87774 19.0628 4.8978 19.0058C4.91786 18.9487 4.92645 18.8883 4.92307 18.8279C4.9197 18.7675 4.90442 18.7084 4.87812 18.654L3.07249 14.8626C3.43216 14.8024 3.80166 14.8608 4.12521 15.029C4.44876 15.1973 4.70879 15.4662 4.86602 15.7953L6.10127 18.3889C6.35308 18.9159 6.72016 19.3795 7.17535 19.7454L7.43212 19.9513C8.02982 20.4283 8.48964 21.0558 8.76425 21.7695C9.03886 22.4831 9.11835 23.2571 8.99452 24.0116L5.40911 25.7192L5.4687 25.3796C5.47134 25.3646 5.47318 25.3496 5.47444 25.3345C5.51919 24.7505 5.33515 24.1721 4.96123 23.7213ZM5.99522 28.9291L5.03528 26.9136L10.4479 24.3358L11.4078 26.3513L5.99522 28.9291Z" fill="#213991"/>
<path d="M25.9995 8.78099C25.9811 8.66552 25.9194 8.56142 25.8269 8.48992C25.7344 8.41841 25.6181 8.38489 25.5017 8.39619C24.9728 8.4472 24.4838 8.69989 24.1363 9.10182C23.7888 9.50375 23.6093 10.0241 23.6352 10.5548L23.7178 13.9351C23.2734 13.9793 22.848 14.1374 22.4825 14.3942C22.1171 14.6509 21.8241 14.9975 21.6319 15.4006L20.3966 17.9943C20.2045 18.3964 19.9243 18.7502 19.5769 19.0295L19.3203 19.2354C18.6765 19.749 18.1636 20.4078 17.8235 21.1578C17.4833 21.9078 17.3257 22.7277 17.3634 23.5504L16.8587 23.3101C16.8043 23.2842 16.7453 23.2692 16.6851 23.2661C16.6249 23.263 16.5647 23.2718 16.5079 23.2919C16.4512 23.312 16.3989 23.3432 16.3541 23.3835C16.3094 23.4239 16.273 23.4726 16.2471 23.527L14.8926 26.3711C14.8403 26.481 14.8337 26.6071 14.8744 26.7218C14.9151 26.8365 14.9997 26.9303 15.1095 26.9826L21.3508 29.9552C21.4052 29.9811 21.4642 29.9961 21.5244 29.9993C21.5846 30.0024 21.6448 29.9937 21.7016 29.9735C21.7584 29.9534 21.8107 29.9222 21.8554 29.8818C21.9002 29.8415 21.9365 29.7927 21.9624 29.7382L23.3169 26.8941C23.3692 26.7843 23.3758 26.6581 23.3351 26.5435C23.2944 26.4288 23.2098 26.335 23.1 26.2826L22.9337 26.2035L22.7655 25.2451C22.7447 24.9044 22.8544 24.5686 23.0723 24.306L26.3043 20.3949C26.3109 20.387 26.3171 20.3789 26.3231 20.3706C26.9893 19.4404 27.3406 18.3215 27.3256 17.1775C27.3252 17.1558 27.3233 17.1341 27.3198 17.1127L25.9995 8.78099ZM21.3312 28.9293L15.9186 26.3514L16.8785 24.3359L22.2911 26.9137L21.3312 28.9293ZM25.5872 19.8223L22.3652 23.7213C21.9913 24.1721 21.8074 24.7505 21.8521 25.3344C21.8533 25.3496 21.8551 25.3646 21.8579 25.3795L21.9174 25.7192L18.3319 24.0116C18.208 23.257 18.2875 22.4831 18.5622 21.7694C18.8368 21.0558 19.2967 20.4282 19.8944 19.9513L20.151 19.7455C20.6063 19.3795 20.9734 18.9159 21.2252 18.3889L22.4604 15.7952C22.6177 15.4662 22.8777 15.1973 23.2013 15.0291C23.5248 14.8608 23.8943 14.8024 24.254 14.8626L22.4482 18.6541C22.4219 18.7085 22.4066 18.7676 22.4033 18.828C22.3999 18.8884 22.4085 18.9488 22.4285 19.0058C22.4486 19.0629 22.4797 19.1154 22.5201 19.1604C22.5606 19.2053 22.6095 19.2419 22.6641 19.2679C22.7187 19.2939 22.7779 19.3088 22.8382 19.3119C22.8986 19.3149 22.959 19.306 23.016 19.2856C23.0729 19.2653 23.1252 19.2338 23.17 19.1932C23.2147 19.1525 23.251 19.1034 23.2767 19.0487L25.307 14.7853C25.3594 14.6755 25.3659 14.5493 25.3252 14.4346C25.2845 14.32 25.1999 14.2261 25.0901 14.1738C24.9447 14.1047 24.7932 14.0493 24.6375 14.0083L24.5524 10.5269C24.5524 10.5228 24.5524 10.5189 24.552 10.5149C24.5405 10.2938 24.593 10.0741 24.7033 9.88207C24.8135 9.69006 24.9768 9.53392 25.1736 9.43236L26.4085 17.2233C26.414 18.1543 26.1267 19.0635 25.5872 19.8223Z" fill="#213991"/>
</svg>
