<svg width="30" height="30" viewBox="0 0 30 30" fill="none" xmlns="http://www.w3.org/2000/svg">
<path d="M29.8943 6.30791C29.7539 6.06473 29.4431 5.98088 29.2004 6.12076L26.8083 7.49623C26.7383 7.53613 26.6792 7.59203 26.6356 7.65924L24.7642 10.5315C23.6608 11.6159 22.2043 12.2123 20.6558 12.2123H10.8425C10.2599 12.2123 9.90449 11.7798 9.82114 11.3781C9.70108 10.7979 10.0807 10.2557 10.8365 9.92814C11.1721 9.78292 11.5546 9.70923 11.9751 9.70923H14.9355C15.9435 9.70923 16.7634 8.88911 16.7634 7.88107C16.7634 6.87304 15.9435 6.05292 14.9355 6.05292H12.173C10.7124 6.05292 9.30391 6.66582 8.30935 7.73484L2.74788 13.7086C2.37613 14.1083 1.75929 14.1739 1.37267 13.8552C1.16672 13.6852 1.04119 13.4467 1.01984 13.1837C0.99799 12.9207 1.08134 12.6661 1.25464 12.4673L7.22661 5.6062C8.07875 4.62726 9.31204 4.06569 10.6104 4.06569H19.0737C19.979 4.06569 20.8912 3.86215 21.7106 3.47757C22.3086 3.19691 24.1697 1.41296 24.7255 0.872738C24.927 0.677204 24.932 0.355635 24.7365 0.15413C24.5409 -0.0471214 24.2194 -0.0523307 24.0178 0.143711C22.9364 1.19393 21.5815 2.41528 21.2787 2.55745C20.5933 2.87928 19.8306 3.04927 19.0737 3.04927H10.6104C9.0183 3.04927 7.50549 3.7379 6.46035 4.93867L0.488383 11.7998C0.133525 12.2072 -0.0377409 12.7284 0.00698152 13.2671C0.0511957 13.8058 0.30619 14.2929 0.726098 14.6391C1.08248 14.9331 1.51814 15.0768 1.95838 15.0768C2.25568 15.0768 2.55286 15.0062 2.83021 14.8768C2.87519 14.8961 2.92004 14.9162 2.97124 14.9219L3.05167 14.9306C3.28646 14.9569 3.51718 14.9701 3.74499 14.9701C4.23427 14.9701 4.70894 14.9068 5.17865 14.7847C5.67771 17.6489 8.17556 19.8353 11.1805 19.8353C14.5434 19.8353 17.279 17.0995 17.279 13.7368C17.279 13.5674 17.2697 13.3978 17.2556 13.2286H20.6558C22.4931 13.2286 24.2208 12.5129 25.5195 11.2137C25.5443 11.1889 25.5666 11.1613 25.5859 11.1317L27.4207 8.31623L29.7066 7.00149C29.9503 6.86211 30.0343 6.55134 29.8943 6.30791ZM10.8424 13.2288H14.1822C14.2104 13.3963 14.2297 13.5658 14.2297 13.737C14.2297 15.4185 12.8619 16.7863 11.1805 16.7863C9.49906 16.7863 8.13122 15.4185 8.13122 13.737C8.13122 12.9962 8.40184 12.294 8.87435 11.7465C9.13074 12.6253 9.913 13.2288 10.8424 13.2288ZM14.9354 7.06959C15.383 7.06959 15.7469 7.4336 15.7469 7.88133C15.7469 8.32906 15.3831 8.69307 14.9354 8.69307H14.5869C14.5701 8.67846 14.5594 8.65927 14.5404 8.64669C13.5424 7.98742 12.3805 7.63866 11.1805 7.63866C10.7 7.63866 10.2346 7.70028 9.78582 7.80586C10.4856 7.33322 11.3174 7.06972 12.173 7.06972H14.9354V7.06959ZM5.08272 13.7537C4.70106 13.8668 4.31444 13.9293 3.91715 13.9438L5.19669 12.5694C5.123 12.9477 5.08183 13.3375 5.08183 13.737C5.08183 13.7426 5.08272 13.7481 5.08272 13.7537ZM16.2624 13.737C16.2624 16.5394 13.9825 18.8191 11.1803 18.8191C8.37821 18.8191 6.09825 16.5394 6.09825 13.737C6.09825 10.9347 8.37821 8.65495 11.1803 8.65495C11.3919 8.65495 11.601 8.6749 11.8086 8.70056C11.3125 8.71898 10.8491 8.81491 10.4324 8.99558C9.64009 9.33875 9.19046 9.8298 8.96621 10.3411C8.94664 10.3508 8.9253 10.3534 8.90675 10.366C7.78462 11.1246 7.11467 12.3847 7.11467 13.737C7.11467 15.9789 8.93851 17.8027 11.1803 17.8027C13.4222 17.8027 15.246 15.9789 15.246 13.737C15.246 13.5667 15.2336 13.3971 15.2125 13.2288H16.2267C16.2438 13.3979 16.2624 13.5673 16.2624 13.737Z" fill="#213991"/>
<path d="M23.3 21.091C23.2073 20.9423 23.0444 20.852 22.8692 20.852H6.09825C5.92305 20.852 5.76029 20.9423 5.66742 21.091L0.585325 29.2223C0.436419 29.4603 0.508839 29.7737 0.746681 29.9226C0.985413 30.0713 1.2986 29.9989 1.44699 29.7609L6.38018 21.8685H22.5874L27.5206 29.7609C27.6169 29.9153 27.7825 29.9999 27.9519 29.9999C28.0438 29.9999 28.137 29.9751 28.2209 29.9228C28.4586 29.7739 28.531 29.4604 28.3822 29.2225L23.3 21.091Z" fill="#213991"/>
<path d="M19.0576 23.9012H9.90983C9.20901 23.9012 8.63931 24.4712 8.63931 25.1718C8.63931 25.8723 9.20901 26.4423 9.90983 26.4423H19.0576C19.7584 26.4423 20.3281 25.8723 20.3281 25.1718C20.3281 24.4712 19.7584 23.9012 19.0576 23.9012ZM19.0576 25.4259H9.90983C9.76982 25.4259 9.65572 25.312 9.65572 25.1718C9.65572 25.0315 9.76982 24.9177 9.90983 24.9177H19.0576C19.1976 24.9177 19.3117 25.0315 19.3117 25.1718C19.3117 25.312 19.1976 25.4259 19.0576 25.4259Z" fill="#213991"/>
</svg>
