<svg width="26" height="30" viewBox="0 0 26 30" fill="none" xmlns="http://www.w3.org/2000/svg">
<path d="M22.641 4.18933H20.2274V2.30404C20.2267 1.69317 19.9837 1.10753 19.5518 0.675585C19.1198 0.243644 18.5342 0.000681056 17.9233 0H10.4238C10.4028 0.000157303 10.3818 0.00206765 10.361 0.00571127L10.3548 0.0067155C10.3349 0.0104862 10.3153 0.0158808 10.2963 0.0228452L10.2891 0.0254812C10.2705 0.0326374 10.2525 0.0412629 10.2353 0.0512761C10.2328 0.0527196 10.2304 0.0542887 10.2279 0.055795C10.211 0.066122 10.1949 0.077769 10.1797 0.0906276C10.1788 0.0913808 10.1778 0.0918828 10.177 0.092636L5.47406 4.18933H2.76C2.02826 4.19016 1.32672 4.48121 0.809303 4.99863C0.291882 5.51605 0.000830564 6.21759 0 6.94933V22.13C0.000830532 22.8618 0.29188 23.5633 0.809299 24.0807C1.32672 24.5982 2.02825 24.8892 2.76 24.8901H12.3239V29.2469H7.77709C7.67722 29.2469 7.58144 29.2865 7.51082 29.3572C7.4402 29.4278 7.40052 29.5236 7.40052 29.6234C7.40052 29.7233 7.4402 29.8191 7.51082 29.8897C7.58144 29.9603 7.67722 30 7.77709 30H17.9089C18.0088 30 18.1046 29.9603 18.1752 29.8897C18.2458 29.8191 18.2855 29.7233 18.2855 29.6234C18.2855 29.5236 18.2458 29.4278 18.1752 29.3572C18.1046 29.2865 18.0088 29.2469 17.9089 29.2469H13.077V24.8901H22.641C23.3727 24.8892 24.0742 24.5982 24.5917 24.0807C25.1091 23.5633 25.4001 22.8618 25.401 22.13V6.94933C25.4001 6.21759 25.1091 5.51605 24.5917 4.99863C24.0742 4.48121 23.3727 4.19016 22.641 4.18933ZM19.4743 2.30404V19.6488H5.92669V4.99914H8.49627C9.10714 4.99846 9.69279 4.7555 10.1247 4.32356C10.5567 3.89162 10.7997 3.30597 10.8004 2.6951V0.753138H17.9233C18.3345 0.753587 18.7287 0.917127 19.0195 1.20788C19.3102 1.49863 19.4738 1.89285 19.4743 2.30404ZM6.55563 4.246L10.0472 1.20414V2.6951C10.0468 3.1063 9.88322 3.50051 9.59245 3.79127C9.30169 4.08202 8.90747 4.24556 8.49627 4.246H6.55563ZM2.76 4.94247H5.17356V19.6488H0.753138V6.94933C0.753736 6.41726 0.965365 5.90716 1.34159 5.53093C1.71782 5.1547 2.22793 4.94307 2.76 4.94247ZM22.641 24.1369H2.76C2.22792 24.1363 1.71782 23.9247 1.34159 23.5485C0.965363 23.1722 0.753736 22.6621 0.753138 22.13V20.4019H24.6478V22.13C24.6472 22.6621 24.4356 23.1722 24.0594 23.5485C23.6831 23.9247 23.173 24.1363 22.641 24.1369ZM24.6478 19.6488H20.2274V4.94247H22.641C23.173 4.94307 23.6831 5.1547 24.0594 5.53093C24.4356 5.90716 24.6472 6.41726 24.6478 6.94933V19.6488Z" fill="#213991"/>
<path d="M17.7188 9.28869H18.349C18.4489 9.28869 18.5447 9.24902 18.6153 9.1784C18.6859 9.10778 18.7256 9.01199 18.7256 8.91212C18.7256 8.81225 18.6859 8.71647 18.6153 8.64585C18.5447 8.57523 18.4489 8.53555 18.349 8.53555H17.7188C17.619 8.53555 17.5232 8.57523 17.4525 8.64585C17.3819 8.71647 17.3423 8.81225 17.3423 8.91212C17.3423 9.01199 17.3819 9.10778 17.4525 9.1784C17.5232 9.24902 17.619 9.28869 17.7188 9.28869Z" fill="#213991"/>
<path d="M14.8756 9.28869H16.2308C16.3307 9.28869 16.4265 9.24902 16.4971 9.1784C16.5677 9.10778 16.6074 9.01199 16.6074 8.91212C16.6074 8.81225 16.5677 8.71647 16.4971 8.64585C16.4265 8.57523 16.3307 8.53555 16.2308 8.53555H14.8756C14.7757 8.53555 14.6799 8.57523 14.6093 8.64585C14.5387 8.71647 14.499 8.81225 14.499 8.91212C14.499 9.01199 14.5387 9.10778 14.6093 9.1784C14.6799 9.24902 14.7757 9.28869 14.8756 9.28869Z" fill="#213991"/>
<path d="M14.8756 12.0084H18.349C18.4489 12.0084 18.5447 11.9687 18.6153 11.8981C18.6859 11.8274 18.7256 11.7317 18.7256 11.6318C18.7256 11.5319 18.6859 11.4361 18.6153 11.3655C18.5447 11.2949 18.4489 11.2552 18.349 11.2552H14.8756C14.7757 11.2552 14.6799 11.2949 14.6093 11.3655C14.5387 11.4361 14.499 11.5319 14.499 11.6318C14.499 11.7317 14.5387 11.8274 14.6093 11.8981C14.6799 11.9687 14.7757 12.0084 14.8756 12.0084Z" fill="#213991"/>
<path d="M7.17747 14.728H12.0729C12.1727 14.728 12.2685 14.6883 12.3391 14.6177C12.4098 14.5471 12.4494 14.4513 12.4494 14.3514C12.4494 14.2516 12.4098 14.1558 12.3391 14.0851C12.2685 14.0145 12.1727 13.9749 12.0729 13.9749H7.17747C7.0776 13.9749 6.98182 14.0145 6.9112 14.0851C6.84058 14.1558 6.8009 14.2516 6.8009 14.3514C6.8009 14.4513 6.84058 14.5471 6.9112 14.6177C6.98182 14.6883 7.0776 14.728 7.17747 14.728Z" fill="#213991"/>
<path d="M13.5164 14.728H15.8229C15.9227 14.728 16.0185 14.6883 16.0891 14.6177C16.1598 14.5471 16.1994 14.4513 16.1994 14.3514C16.1994 14.2516 16.1598 14.1558 16.0891 14.0851C16.0185 14.0145 15.9227 13.9749 15.8229 13.9749H13.5164C13.4165 13.9749 13.3207 14.0145 13.2501 14.0851C13.1795 14.1558 13.1398 14.2516 13.1398 14.3514C13.1398 14.4513 13.1795 14.5471 13.2501 14.6177C13.3207 14.6883 13.4165 14.728 13.5164 14.728Z" fill="#213991"/>
<path d="M18.349 13.9749H17.2821C17.1822 13.9749 17.0864 14.0145 17.0158 14.0851C16.9452 14.1558 16.9055 14.2516 16.9055 14.3514C16.9055 14.4513 16.9452 14.5471 17.0158 14.6177C17.0864 14.6883 17.1822 14.728 17.2821 14.728H18.349C18.4489 14.728 18.5447 14.6883 18.6153 14.6177C18.6859 14.5471 18.7256 14.4513 18.7256 14.3514C18.7256 14.2516 18.6859 14.1558 18.6153 14.0851C18.5447 14.0145 18.4489 13.9749 18.349 13.9749Z" fill="#213991"/>
<path d="M8.93479 16.6945H7.17747C7.0776 16.6945 6.98182 16.7342 6.9112 16.8048C6.84058 16.8755 6.8009 16.9712 6.8009 17.0711C6.8009 17.171 6.84058 17.2668 6.9112 17.3374C6.98182 17.408 7.0776 17.4477 7.17747 17.4477H8.93479C9.03467 17.4477 9.13045 17.408 9.20107 17.3374C9.27169 17.2668 9.31136 17.171 9.31136 17.0711C9.31136 16.9712 9.27169 16.8755 9.20107 16.8048C9.13045 16.7342 9.03467 16.6945 8.93479 16.6945Z" fill="#213991"/>
<path d="M15.8229 16.6945H10.3626C10.2628 16.6945 10.167 16.7342 10.0963 16.8048C10.0257 16.8755 9.98605 16.9712 9.98605 17.0711C9.98605 17.171 10.0257 17.2668 10.0963 17.3374C10.167 17.408 10.2628 17.4477 10.3626 17.4477H15.8229C15.9227 17.4477 16.0185 17.408 16.0891 17.3374C16.1598 17.2668 16.1994 17.171 16.1994 17.0711C16.1994 16.9712 16.1598 16.8755 16.0891 16.8048C16.0185 16.7342 15.9227 16.6945 15.8229 16.6945Z" fill="#213991"/>
<path d="M18.349 16.6945H17.2821C17.1822 16.6945 17.0864 16.7342 17.0158 16.8048C16.9452 16.8755 16.9055 16.9712 16.9055 17.0711C16.9055 17.171 16.9452 17.2668 17.0158 17.3374C17.0864 17.408 17.1822 17.4477 17.2821 17.4477H18.349C18.4489 17.4477 18.5447 17.408 18.6153 17.3374C18.6859 17.2668 18.7256 17.171 18.7256 17.0711C18.7256 16.9712 18.6859 16.8755 18.6153 16.8048C18.5447 16.7342 18.4489 16.6945 18.349 16.6945Z" fill="#213991"/>
<path d="M10.2793 5.99747C10.2277 5.97221 10.1711 5.95908 10.1137 5.95908C10.0562 5.95908 9.99957 5.97221 9.948 5.99747L7.43754 7.22571C7.37421 7.25669 7.32085 7.30481 7.28352 7.36462C7.2462 7.42442 7.22641 7.4935 7.22641 7.564V9.91379C7.23391 10.236 7.31072 10.5528 7.4516 10.8427C7.63932 11.2467 7.92231 11.5978 8.22777 11.806L9.9013 12.9464C9.96382 12.989 10.0377 13.0117 10.1133 13.0117C10.189 13.0117 10.2629 12.989 10.3254 12.9464L11.999 11.8061C12.5605 11.4233 13.0003 10.5924 13.0003 9.91379V7.56732C13.0003 7.49691 12.9806 7.4279 12.9434 7.36813C12.9061 7.30837 12.8529 7.26025 12.7897 7.22923L10.2793 5.99747ZM12.2473 9.91379C12.2473 10.3463 11.9335 10.9397 11.575 11.1836L10.1134 12.1795L8.65185 11.1836C8.45817 11.0518 8.2648 10.8056 8.13457 10.5254C8.04059 10.3347 7.98777 10.1263 7.97955 9.91379V7.79873L10.1134 6.75481L12.2473 7.80193V9.91379Z" fill="#213991"/>
<path d="M9.31413 9.14239C9.2788 9.10754 9.23692 9.08003 9.19092 9.06142C9.14492 9.04281 9.09569 9.03348 9.04607 9.03396C8.99645 9.03445 8.94741 9.04473 8.90178 9.06423C8.85614 9.08372 8.81481 9.11205 8.78016 9.14757C8.74551 9.18309 8.71822 9.22512 8.69987 9.27122C8.68151 9.31732 8.67245 9.3666 8.6732 9.41622C8.67395 9.46584 8.6845 9.51482 8.70425 9.56035C8.72399 9.60587 8.75254 9.64705 8.78825 9.68151L9.5466 10.4211C9.61693 10.4897 9.71127 10.5281 9.80951 10.5281C9.90774 10.5281 10.0021 10.4897 10.0724 10.4211L11.4387 9.08866C11.4744 9.0542 11.5029 9.01303 11.5227 8.9675C11.5424 8.92198 11.553 8.87299 11.5537 8.82338C11.5545 8.77376 11.5454 8.72448 11.5271 8.67838C11.5087 8.63227 11.4814 8.59025 11.4468 8.55473C11.4121 8.5192 11.3708 8.49088 11.3251 8.47138C11.2795 8.45189 11.2305 8.4416 11.1809 8.44112C11.1312 8.44064 11.082 8.44997 11.036 8.46857C10.99 8.48718 10.9481 8.5147 10.9128 8.54954L9.80951 9.62559L9.31413 9.14239Z" fill="#213991"/>
</svg>
