<svg width="29" height="30" viewBox="0 0 29 30" fill="none" xmlns="http://www.w3.org/2000/svg">
<path d="M19.1636 12.9305H22.3105C22.372 12.933 22.4333 12.9229 22.4907 12.9008C22.5481 12.8786 22.6004 12.8449 22.6442 12.8018C22.6881 12.7587 22.7227 12.707 22.7458 12.6499C22.7689 12.5929 22.78 12.5317 22.7785 12.4702V6.30244C22.7796 6.01285 22.7223 5.72602 22.6099 5.45912C22.4976 5.19222 22.3325 4.95074 22.1246 4.74914L21.7951 4.3917L20.5517 1.03638C20.4379 0.731932 20.2338 0.469526 19.9667 0.284305C19.6996 0.0990833 19.3822 -0.000112372 19.0572 4.26019e-07H10.0885C9.76315 -0.000237112 9.44545 0.0988648 9.17791 0.284056C8.91037 0.469246 8.70574 0.731699 8.59138 1.03632L7.3639 4.34714L6.88674 4.79771C6.6523 4.99974 6.46455 5.2503 6.33646 5.53203C6.20838 5.81377 6.14302 6.11996 6.14491 6.42944V12.4702C6.14342 12.5317 6.15457 12.5929 6.17766 12.6499C6.20076 12.707 6.23531 12.7587 6.27918 12.8018C6.32306 12.8449 6.37531 12.8786 6.43272 12.9008C6.49013 12.9229 6.55148 12.933 6.61296 12.9305H9.75987C10.0281 12.9305 10.273 12.7385 10.273 12.4702V10.8058H18.6505V12.4702C18.6505 12.7385 18.8954 12.9305 19.1636 12.9305ZM19.6218 11.9592V10.8058H21.8072V11.9592H19.6218ZM9.50247 1.36991C9.54762 1.25147 9.62802 1.14974 9.73283 1.07846C9.83764 1.00718 9.96179 0.969778 10.0885 0.971307H19.0572C19.184 0.96977 19.3081 1.00717 19.413 1.07847C19.5178 1.14976 19.5982 1.25151 19.6433 1.36997L20.6685 4.12805H8.47707L9.50247 1.36991ZM7.11621 6.42944C7.11444 6.25875 7.15003 6.08973 7.22049 5.93425C7.29095 5.77877 7.39458 5.64059 7.5241 5.5294C7.52975 5.52461 7.53084 5.51587 7.53624 5.51083L7.97011 5.09936H21.1384L21.4338 5.41892C21.4406 5.4262 21.4389 5.43525 21.4459 5.44211C21.5614 5.55343 21.6529 5.6871 21.7151 5.83497C21.7772 5.98284 21.8085 6.14182 21.8072 6.3022V9.83448H7.11621V6.42944ZM9.30165 11.9592H7.11621V10.8058H9.30165V11.9592Z" fill="#213991"/>
<path d="M9.14894 9.04528H9.42097C9.79127 9.04528 10.1464 8.89818 10.4083 8.63633C10.6701 8.37448 10.8172 8.01934 10.8172 7.64903C10.8172 7.27872 10.6701 6.92358 10.4083 6.66173C10.1464 6.39988 9.79127 6.25278 9.42097 6.25278H9.14894C8.77863 6.25278 8.42349 6.39988 8.16164 6.66173C7.89979 6.92358 7.75269 7.27872 7.75269 7.64903C7.75269 8.01934 7.89979 8.37448 8.16164 8.63633C8.42349 8.89818 8.77863 9.04528 9.14894 9.04528ZM9.14894 7.22408H9.42097C9.53367 7.22408 9.64175 7.26885 9.72145 7.34855C9.80114 7.42824 9.84591 7.53633 9.84591 7.64903C9.84591 7.76173 9.80114 7.86982 9.72145 7.94951C9.64175 8.02921 9.53367 8.07398 9.42097 8.07398H9.14894C9.03624 8.07398 8.92815 8.02921 8.84846 7.94951C8.76876 7.86982 8.72399 7.76173 8.72399 7.64903C8.72399 7.53633 8.76876 7.42824 8.84846 7.34855C8.92815 7.26885 9.03624 7.22408 9.14894 7.22408Z" fill="#213991"/>
<path d="M19.5025 9.04528H19.7745C20.1448 9.04528 20.4999 8.89818 20.7618 8.63633C21.0236 8.37448 21.1707 8.01934 21.1707 7.64903C21.1707 7.27872 21.0236 6.92358 20.7618 6.66173C20.4999 6.39988 20.1448 6.25278 19.7745 6.25278H19.5025C19.1321 6.25278 18.777 6.39988 18.5152 6.66173C18.2533 6.92358 18.1062 7.27872 18.1062 7.64903C18.1062 8.01934 18.2533 8.37448 18.5152 8.63633C18.777 8.89818 19.1321 9.04528 19.5025 9.04528ZM19.5025 7.22408H19.7745C19.8872 7.22408 19.9953 7.26885 20.075 7.34855C20.1547 7.42824 20.1994 7.53633 20.1994 7.64903C20.1994 7.76173 20.1547 7.86982 20.075 7.94951C19.9953 8.02921 19.8872 8.07398 19.7745 8.07398H19.5025C19.3898 8.07398 19.2817 8.02921 19.202 7.94951C19.1223 7.86982 19.0775 7.76173 19.0775 7.64903C19.0775 7.53633 19.1223 7.42824 19.202 7.34855C19.2817 7.26885 19.3898 7.22408 19.5025 7.22408Z" fill="#213991"/>
<path d="M17.3757 6.73843C17.3757 6.60963 17.3245 6.4861 17.2334 6.39502C17.1423 6.30394 17.0188 6.25278 16.89 6.25278H12.0942C11.9654 6.25278 11.8418 6.30394 11.7508 6.39502C11.6597 6.4861 11.6085 6.60963 11.6085 6.73843V8.49892C11.6085 8.62773 11.6597 8.75125 11.7508 8.84233C11.8418 8.93341 11.9654 8.98458 12.0942 8.98458H16.89C17.0188 8.98458 17.1423 8.93341 17.2334 8.84233C17.3245 8.75125 17.3757 8.62773 17.3757 8.49892V6.73843ZM12.5798 7.22408H16.3436V8.01327H12.5798V7.22408Z" fill="#213991"/>
<path d="M27.5191 7.54097C27.4996 7.41875 27.4343 7.30857 27.3363 7.23289C27.2384 7.1572 27.1153 7.12173 26.9921 7.13368C26.4323 7.18767 25.9148 7.45513 25.547 7.88055C25.1791 8.30598 24.9892 8.8567 25.0166 9.41844L25.104 12.9963C24.6336 13.0431 24.1833 13.2105 23.7965 13.4822C23.4098 13.7539 23.0996 14.1208 22.8962 14.5475L21.5887 17.2927C21.3853 17.7184 21.0888 18.0929 20.7211 18.3885L20.4494 18.6063C19.7681 19.15 19.2252 19.8473 18.8652 20.6411C18.5052 21.435 18.3383 22.3028 18.3782 23.1735L17.844 22.9192C17.7864 22.8918 17.724 22.876 17.6603 22.8727C17.5966 22.8694 17.5329 22.8786 17.4728 22.9C17.4126 22.9213 17.3573 22.9542 17.31 22.9969C17.2626 23.0396 17.2241 23.0912 17.1967 23.1488L15.763 26.1591C15.7076 26.2754 15.7007 26.4089 15.7438 26.5303C15.7868 26.6517 15.8763 26.751 15.9926 26.8064L22.5987 29.9526C22.6563 29.9801 22.7187 29.996 22.7824 29.9993C22.8461 30.0027 22.9098 29.9934 22.97 29.9721C23.0301 29.9508 23.0854 29.9178 23.1328 29.8751C23.1801 29.8323 23.2186 29.7807 23.246 29.7231L24.6796 26.7127C24.735 26.5965 24.7419 26.4629 24.6989 26.3416C24.6558 26.2202 24.5663 26.1209 24.4501 26.0655L24.274 25.9818L24.096 24.9673C24.074 24.6067 24.1901 24.2513 24.4207 23.9733L27.8417 19.8336C27.8486 19.8253 27.8552 19.8167 27.8615 19.808C28.5667 18.8234 28.9385 17.6391 28.9226 16.4282C28.9222 16.4052 28.9202 16.3823 28.9165 16.3596L27.5191 7.54097ZM22.5779 28.8668L16.8489 26.1383L17.865 24.005L23.5939 26.7334L22.5779 28.8668ZM27.0827 19.2276L23.6723 23.3544C23.2766 23.8316 23.0819 24.4438 23.1293 25.0619C23.1305 25.0779 23.1324 25.0938 23.1353 25.1096L23.1984 25.4691L19.4033 23.6617C19.2722 22.8631 19.3564 22.0439 19.647 21.2885C19.9377 20.5332 20.4244 19.8689 21.0571 19.3641L21.3288 19.1463C21.8106 18.7589 22.1991 18.2682 22.4657 17.7104L23.7731 14.9651C23.9396 14.6169 24.2148 14.3323 24.5573 14.1542C24.8997 13.9761 25.2908 13.9143 25.6715 13.978L23.7602 17.9911C23.7324 18.0487 23.7162 18.1113 23.7126 18.1752C23.709 18.2391 23.7181 18.303 23.7394 18.3634C23.7606 18.4238 23.7935 18.4794 23.8363 18.527C23.8791 18.5746 23.9309 18.6132 23.9887 18.6407C24.0465 18.6683 24.1091 18.6841 24.173 18.6873C24.2369 18.6905 24.3009 18.6811 24.3611 18.6595C24.4214 18.638 24.4768 18.6047 24.5241 18.5617C24.5715 18.5186 24.6099 18.4667 24.6371 18.4087L26.7861 13.8962C26.8415 13.7799 26.8484 13.6464 26.8053 13.525C26.7623 13.4037 26.6727 13.3043 26.5565 13.249C26.4026 13.1758 26.2422 13.1172 26.0774 13.0738L25.9874 9.38888C25.9874 9.38463 25.9874 9.38044 25.9869 9.37625C25.9748 9.14221 26.0304 8.90964 26.1471 8.7064C26.2638 8.50317 26.4366 8.3379 26.6448 8.23041L27.952 16.4767C27.9578 17.4621 27.6537 18.4244 27.0827 19.2276Z" fill="#213991"/>
<path d="M11.7266 23.1488C11.6992 23.0912 11.6607 23.0396 11.6133 22.9969C11.566 22.9542 11.5106 22.9213 11.4505 22.8999C11.3904 22.8786 11.3267 22.8693 11.263 22.8726C11.1993 22.876 11.1369 22.8918 11.0793 22.9192L10.5451 23.1735C10.585 22.3028 10.4181 21.4351 10.0582 20.6413C9.6982 19.8475 9.15537 19.1502 8.4741 18.6065L8.20232 18.3886C7.83462 18.093 7.53812 17.7184 7.33476 17.2927L6.02732 14.5475C5.82384 14.1208 5.51372 13.7539 5.12695 13.4821C4.74018 13.2104 4.28984 13.0431 3.81948 12.9963L3.9069 9.41841C3.9343 8.85667 3.74437 8.30595 3.37652 7.88052C3.00866 7.4551 2.49113 7.18764 1.93132 7.13366C1.80813 7.12161 1.68498 7.15705 1.58705 7.23275C1.48911 7.30845 1.42378 7.41868 1.40439 7.54094L0.00655753 16.3594C0.00289645 16.3821 0.000867664 16.405 0.000486843 16.428C-0.0153687 17.639 0.356437 18.8232 1.06158 19.8078C1.06789 19.8166 1.07451 19.8251 1.08143 19.8335L4.50249 23.973C4.73311 24.251 4.84921 24.6065 4.82721 24.967L4.64922 25.9815L4.47317 26.0652C4.3569 26.1206 4.26739 26.2199 4.22434 26.3413C4.18128 26.4627 4.1882 26.5962 4.24358 26.7125L5.67747 29.7229C5.70485 29.7805 5.74333 29.8322 5.7907 29.8749C5.83806 29.9176 5.89339 29.9506 5.95352 29.9719C6.01364 29.9933 6.07738 30.0025 6.14109 29.9992C6.20479 29.9958 6.26721 29.98 6.32478 29.9525L12.9307 26.8064C13.047 26.751 13.1365 26.6517 13.1795 26.5303C13.2226 26.4089 13.2157 26.2754 13.1603 26.1591L11.7266 23.1488ZM5.25119 23.3544L1.84081 19.2276C1.2697 18.4244 0.965531 17.462 0.971308 16.4765L2.27856 8.23026C2.48681 8.33775 2.65964 8.50302 2.77634 8.70625C2.89303 8.90948 2.94864 9.14206 2.9365 9.3761C2.9365 9.38029 2.93614 9.38448 2.93602 9.38873L2.84599 13.0736C2.68122 13.117 2.52085 13.1757 2.36695 13.2488C2.25067 13.3042 2.16115 13.4035 2.11808 13.5249C2.07502 13.6463 2.08193 13.7798 2.1373 13.8961L4.28632 18.4086C4.31352 18.4665 4.35191 18.5185 4.39927 18.5615C4.44663 18.6046 4.50203 18.6378 4.56229 18.6594C4.62255 18.681 4.68647 18.6904 4.75039 18.6872C4.81431 18.6839 4.87696 18.6681 4.93474 18.6406C4.99252 18.6131 5.04429 18.5744 5.08708 18.5268C5.12986 18.4792 5.16282 18.4236 5.18405 18.3633C5.20528 18.3029 5.21437 18.2389 5.2108 18.175C5.20723 18.1111 5.19106 18.0485 5.16322 17.9909L3.25206 13.978C3.63275 13.9142 4.02385 13.976 4.36631 14.1541C4.70877 14.3322 4.98399 14.6168 5.15041 14.9651L6.45785 17.7103C6.72438 18.2681 7.11291 18.7588 7.59471 19.1462L7.86649 19.3641C8.49912 19.8689 8.98582 20.5332 9.27647 21.2885C9.56713 22.0439 9.65126 22.863 9.5202 23.6617L5.72524 25.4691L5.78832 25.1096C5.79111 25.0938 5.79305 25.0779 5.79439 25.0618C5.84175 24.4438 5.64696 23.8315 5.25119 23.3544ZM6.34561 28.8666L5.32956 26.7332L11.0585 24.0048L12.0746 26.1381L6.34561 28.8666Z" fill="#213991"/>
</svg>
