<svg width="33" height="30" viewBox="0 0 33 30" fill="none" xmlns="http://www.w3.org/2000/svg">
<path d="M28.4732 20.3036C28.1889 19.8122 27.7215 19.4535 27.1733 19.3059C26.6251 19.1583 26.0408 19.2339 25.5482 19.5161L20.325 22.5322C20.0398 22.1048 19.6099 21.7947 19.1143 21.6589L11.1214 19.5214C10.5063 19.3554 9.85893 19.3499 9.24107 19.5054L6.42857 20.2072V19.8214C6.42857 19.6794 6.37213 19.5431 6.27166 19.4426C6.1712 19.3422 6.03494 19.2857 5.89286 19.2857H4.28571V18.75C4.28571 18.6079 4.22927 18.4717 4.12881 18.3712C4.02834 18.2707 3.89208 18.2143 3.75 18.2143H0.535714C0.393634 18.2143 0.257373 18.2707 0.156907 18.3712C0.0564411 18.4717 0 18.6079 0 18.75V29.4643C0 29.6064 0.0564411 29.7426 0.156907 29.8431C0.257373 29.9436 0.393634 30 0.535714 30H3.75C3.89208 30 4.02834 29.9436 4.12881 29.8431C4.22927 29.7426 4.28571 29.6064 4.28571 29.4643V28.9286H5.89286C6.03494 28.9286 6.1712 28.8721 6.27166 28.7717C6.37213 28.6712 6.42857 28.5349 6.42857 28.3929V28.1893L7.11964 28.5322C7.64043 28.7921 8.21438 28.9278 8.79643 28.9286H16.8161C17.4747 28.93 18.1218 28.7562 18.6911 28.425L27.6911 23.2286C28.1813 22.9432 28.5387 22.4754 28.6853 21.9274C28.8318 21.3793 28.7556 20.7956 28.4732 20.3036ZM3.21429 28.9286H1.07143V19.2857H3.21429V28.9286ZM5.35714 27.8572H4.28571V20.3572H5.35714V27.8572ZM27.1554 22.3018L18.1554 27.4982C17.7483 27.7338 17.2863 27.8576 16.8161 27.8572H8.79643C8.37969 27.858 7.9686 27.7607 7.59643 27.5732L6.42857 26.9893V21.3107L9.49821 20.5447C9.93995 20.433 10.403 20.4367 10.8429 20.5554L18.8357 22.6982C19.0414 22.7516 19.2264 22.8652 19.367 23.0244C19.5077 23.1837 19.5976 23.3813 19.6252 23.5919C19.6528 23.8026 19.6169 24.0167 19.5221 24.2068C19.4272 24.3969 19.2778 24.5543 19.0929 24.6589C18.9721 24.7302 18.8383 24.7764 18.6993 24.7948C18.5603 24.8132 18.4191 24.8034 18.2839 24.7661L11.8929 23.0518C11.755 23.0149 11.6082 23.0342 11.4846 23.1055C11.361 23.1768 11.2709 23.2943 11.2339 23.4322C11.197 23.57 11.2163 23.7168 11.2876 23.8404C11.359 23.964 11.4765 24.0541 11.6143 24.0911L18.0054 25.8C18.1871 25.8489 18.3743 25.8741 18.5625 25.875C18.9373 25.8755 19.3054 25.7757 19.6286 25.5857C19.8734 25.4459 20.0881 25.2588 20.26 25.0353C20.432 24.8118 20.5579 24.5564 20.6304 24.2839C20.6898 24.0478 20.7097 23.8034 20.6893 23.5607L26.0839 20.4482C26.3301 20.3116 26.6197 20.276 26.8916 20.349C27.1635 20.422 27.3964 20.5978 27.5411 20.8393C27.6833 21.0845 27.7226 21.3761 27.6503 21.6502C27.578 21.9243 27.4001 22.1586 27.1554 22.3018Z" fill="#213991"/>
<path d="M31.6071 0H28.3929C28.2508 0 28.1145 0.0564413 28.014 0.156907C27.9136 0.257373 27.8571 0.393634 27.8571 0.535714V1.07143H26.25C26.1079 1.07143 25.9717 1.12787 25.8712 1.22834C25.7707 1.3288 25.7143 1.46506 25.7143 1.60714V1.81071L25.0232 1.4625C24.501 1.20713 23.9277 1.07343 23.3464 1.07143H15.3268C14.6692 1.07209 14.023 1.24379 13.4518 1.56964L4.45178 6.77143C3.95948 7.05559 3.60021 7.52368 3.45303 8.07273C3.30585 8.62177 3.3828 9.2068 3.66696 9.69911C3.95112 10.1914 4.41921 10.5507 4.96826 10.6979C5.51731 10.845 6.10233 10.7681 6.59464 10.4839L7.44643 9.99107C7.12672 10.7263 6.96256 11.5197 6.96428 12.3214C6.96269 13.2676 7.18899 14.2003 7.62402 15.0406C8.05905 15.8809 8.69004 16.6041 9.46361 17.149C10.2372 17.6939 11.1306 18.0445 12.0683 18.1711C13.006 18.2978 13.9604 18.1968 14.8508 17.8767C15.7413 17.5565 16.5415 17.0267 17.1839 16.3319C17.8263 15.6372 18.2919 14.798 18.5414 13.8853C18.7909 12.9725 18.817 12.0131 18.6174 11.0882C18.4178 10.1633 17.9984 9.30002 17.3946 8.57143H17.9089L18.4232 9.42857C18.7581 9.98327 19.2303 10.4423 19.7943 10.7613C20.3582 11.0804 20.9949 11.2487 21.6429 11.25H22.2375C23.2197 11.2537 24.1634 10.8685 24.8625 10.1786H25.7143C25.7143 10.3207 25.7707 10.4569 25.8712 10.5574C25.9717 10.6578 26.1079 10.7143 26.25 10.7143H27.8571V11.25C27.8571 11.3921 27.9136 11.5283 28.014 11.6288C28.1145 11.7293 28.2508 11.7857 28.3929 11.7857H31.6071C31.7492 11.7857 31.8855 11.7293 31.9859 11.6288C32.0864 11.5283 32.1429 11.3921 32.1429 11.25V0.535714C32.1429 0.393634 32.0864 0.257373 31.9859 0.156907C31.8855 0.0564413 31.7492 0 31.6071 0ZM17.6786 12.3214C17.6799 13.3085 17.3783 14.2723 16.8143 15.0825C16.2504 15.8927 15.4514 16.5102 14.5253 16.8518C13.5991 17.1933 12.5904 17.2423 11.6355 16.9922C10.6806 16.7421 9.82548 16.2049 9.18565 15.4532C8.54583 14.7015 8.15215 13.7716 8.05779 12.7889C7.96344 11.8063 8.17296 10.8185 8.65804 9.95876C9.14313 9.09905 9.88041 8.40895 10.7703 7.98169C11.6601 7.55443 12.6597 7.41061 13.6339 7.56964C13.8022 7.87738 14.0513 8.13333 14.3543 8.30988C14.6574 8.48642 15.0029 8.57686 15.3536 8.57143H15.8732C16.434 9.02297 16.887 9.59387 17.1993 10.2426C17.5116 10.8913 17.6754 11.6015 17.6786 12.3214ZM25.7143 9.10714H24.6429C24.5008 9.1082 24.3646 9.16382 24.2625 9.2625L24.1339 9.39643C23.8851 9.64558 23.5895 9.84298 23.264 9.97723C22.9385 10.1115 22.5896 10.1799 22.2375 10.1786H21.6429C21.1802 10.1775 20.7256 10.0571 20.323 9.82906C19.9205 9.60102 19.5835 9.27304 19.3446 8.87679L18.675 7.7625C18.628 7.68217 18.5607 7.61562 18.4798 7.56954C18.3989 7.52346 18.3074 7.49948 18.2143 7.5H15.3536C15.227 7.49922 15.1018 7.47269 14.9858 7.42204C14.8698 7.37139 14.7652 7.29767 14.6786 7.20536C14.6062 7.13243 14.5497 7.04524 14.5128 6.94932C14.4759 6.85341 14.4594 6.75086 14.4643 6.64821C14.4776 6.44392 14.568 6.2523 14.7171 6.11208C14.8663 5.97187 15.0631 5.89351 15.2679 5.89286H20.3571C20.4992 5.89286 20.6355 5.83642 20.7359 5.73595C20.8364 5.63548 20.8929 5.49922 20.8929 5.35714C20.8929 5.21506 20.8364 5.0788 20.7359 4.97834C20.6355 4.87787 20.4992 4.82143 20.3571 4.82143H15.2679C14.8119 4.81763 14.3706 4.98228 14.0285 5.2838C13.6864 5.58533 13.4677 6.00251 13.4143 6.45536C13.2268 6.43929 13.0446 6.42857 12.8571 6.42857C11.4688 6.42959 10.1255 6.921 9.06428 7.81607L6.05893 9.55179C5.81278 9.68842 5.52315 9.72401 5.25124 9.65103C4.97933 9.57806 4.74644 9.40223 4.60178 9.16071C4.45951 8.9155 4.42022 8.6239 4.49251 8.34978C4.56481 8.07566 4.7428 7.84137 4.9875 7.69821L13.9875 2.50179C14.3948 2.26688 14.8566 2.1431 15.3268 2.14286H23.3464C23.7623 2.14458 24.1724 2.23978 24.5464 2.42143L25.7143 3.01071V9.10714ZM27.8571 9.64286H26.7857V2.14286H27.8571V9.64286ZM31.0714 10.7143H28.9286V1.07143H31.0714V10.7143Z" fill="#213991"/>
<path d="M12.3214 10.7143H13.3929C13.5349 10.7143 13.6712 10.7707 13.7717 10.8712C13.8721 10.9717 13.9286 11.1079 13.9286 11.25C13.9286 11.3921 13.985 11.5284 14.0855 11.6288C14.1859 11.7293 14.3222 11.7857 14.4643 11.7857C14.6064 11.7857 14.7426 11.7293 14.8431 11.6288C14.9436 11.5284 15 11.3921 15 11.25C15 10.8238 14.8307 10.415 14.5293 10.1136C14.2279 9.81219 13.8191 9.64287 13.3929 9.64287V9.10716C13.3929 8.96508 13.3364 8.82881 13.236 8.72835C13.1355 8.62788 12.9992 8.57144 12.8571 8.57144C12.7151 8.57144 12.5788 8.62788 12.4783 8.72835C12.3779 8.82881 12.3214 8.96508 12.3214 9.10716V9.64287C11.8952 9.64287 11.4864 9.81219 11.185 10.1136C10.8836 10.415 10.7143 10.8238 10.7143 11.25C10.7143 11.6763 10.8836 12.085 11.185 12.3864C11.4864 12.6878 11.8952 12.8572 12.3214 12.8572H13.3929C13.5349 12.8572 13.6712 12.9136 13.7717 13.0141C13.8721 13.1145 13.9286 13.2508 13.9286 13.3929C13.9286 13.535 13.8721 13.6712 13.7717 13.7717C13.6712 13.8721 13.5349 13.9286 13.3929 13.9286H12.3214C12.1793 13.9286 12.0431 13.8721 11.9426 13.7717C11.8422 13.6712 11.7857 13.535 11.7857 13.3929C11.7857 13.2508 11.7293 13.1145 11.6288 13.0141C11.5283 12.9136 11.3921 12.8572 11.25 12.8572C11.1079 12.8572 10.9717 12.9136 10.8712 13.0141C10.7707 13.1145 10.7143 13.2508 10.7143 13.3929C10.7143 13.8191 10.8836 14.2279 11.185 14.5293C11.4864 14.8307 11.8952 15 12.3214 15V15.5357C12.3214 15.6778 12.3779 15.8141 12.4783 15.9145C12.5788 16.015 12.7151 16.0714 12.8571 16.0714C12.9992 16.0714 13.1355 16.015 13.236 15.9145C13.3364 15.8141 13.3929 15.6778 13.3929 15.5357V15C13.8191 15 14.2279 14.8307 14.5293 14.5293C14.8307 14.2279 15 13.8191 15 13.3929C15 12.9666 14.8307 12.5578 14.5293 12.2564C14.2279 11.9551 13.8191 11.7857 13.3929 11.7857H12.3214C12.1793 11.7857 12.0431 11.7293 11.9426 11.6288C11.8422 11.5284 11.7857 11.3921 11.7857 11.25C11.7857 11.1079 11.8422 10.9717 11.9426 10.8712C12.0431 10.7707 12.1793 10.7143 12.3214 10.7143Z" fill="#213991"/>
</svg>
